<?xml version="1.0" encoding="UTF-8" standalone="no"?>
<svg
   xmlns:dc="http://purl.org/dc/elements/1.1/"
   xmlns:cc="http://creativecommons.org/ns#"
   xmlns:rdf="http://www.w3.org/1999/02/22-rdf-syntax-ns#"
   xmlns:svg="http://www.w3.org/2000/svg"
   xmlns="http://www.w3.org/2000/svg"
   xmlns:sodipodi="http://sodipodi.sourceforge.net/DTD/sodipodi-0.dtd"
   xmlns:inkscape="http://www.inkscape.org/namespaces/inkscape"
   height="48"
   width="48"
   version="1.1"
   id="svg4006"
   sodipodi:docname="info_darkgrey_material.svg"
   inkscape:version="0.92.5 (2060ec1f9f, 2020-04-08)">
  <metadata
     id="metadata4012">
    <rdf:RDF>
      <cc:Work
         rdf:about="">
        <dc:format>image/svg+xml</dc:format>
        <dc:type
           rdf:resource="http://purl.org/dc/dcmitype/StillImage" />
        <dc:title />
      </cc:Work>
    </rdf:RDF>
  </metadata>
  <defs
     id="defs4010" />
  <sodipodi:namedview
     pagecolor="#ffffff"
     bordercolor="#666666"
     borderopacity="1"
     objecttolerance="10"
     gridtolerance="10"
     guidetolerance="10"
     inkscape:pageopacity="0"
     inkscape:pageshadow="2"
     inkscape:window-width="1294"
     inkscape:window-height="704"
     id="namedview4008"
     showgrid="false"
     inkscape:zoom="4.9166667"
     inkscape:cx="24"
     inkscape:cy="24"
     inkscape:window-x="72"
     inkscape:window-y="27"
     inkscape:window-maximized="1"
     inkscape:current-layer="svg4006" />
  <path
     d="M22.5 34.15h3.3V22h-3.3ZM24 18.5q.8 0 1.325-.525.525-.525.525-1.275 0-.8-.525-1.35T24 14.8q-.8 0-1.325.55-.525.55-.525 1.35 0 .75.525 1.275.525.525 1.325.525Zm0 25.8q-4.2 0-7.9-1.6t-6.45-4.35Q6.9 35.6 5.3 31.9 3.7 28.2 3.7 24q0-4.25 1.6-7.95t4.35-6.425Q12.4 6.9 16.1 5.3T24 3.7q4.25 0 7.95 1.6t6.425 4.325Q41.1 12.35 42.7 16.05q1.6 3.7 1.6 7.95 0 4.2-1.6 7.9t-4.325 6.45Q35.65 41.1 31.95 42.7q-3.7 1.6-7.95 1.6Z"
     id="path4004" />
  <path
     style="fill:#333333;stroke-width:0.20338982"
     d="M 21.172881,44.042695 C 12.877356,42.721957 6.2902989,36.617264 4.2511561,28.360131 3.7229707,26.221342 3.7717571,21.596743 4.3466615,19.306918 5.8518995,13.311607 9.7422696,8.5038085 15.242068,5.8421526 18.571,4.2310986 22.014245,3.6130618 25.898908,3.9293292 c 6.682674,0.5440655 12.90164,4.723568 16.003713,10.7554168 5.95535,11.579916 -0.308447,25.610589 -12.899231,28.893809 -1.701688,0.44374 -6.261179,0.713996 -7.830509,0.46414 z m 4.731796,-15.985068 -0.05383,-6.152542 -1.677966,-0.05907 -1.677966,-0.05907 v 6.211616 6.211614 h 1.731796 1.731797 z M 25.358018,17.954628 c 0.671672,-0.671672 0.755414,-1.351838 0.279697,-2.271771 -0.850405,-1.644505 -3.549579,-0.980508 -3.549579,0.873197 0,1.228272 0.714762,1.976805 1.897,1.98663 0.594265,0.0049 0.918972,-0.134145 1.372882,-0.588056 z"
     id="path4014"
     inkscape:connector-curvature="0" />
  <path
     style="fill:#1a1a1a;stroke-width:0.20338982"
     d="M 21.183679,44.017578 C 21.15233,43.986228 20.8625,43.925906 20.539612,43.88353 20.216724,43.841154 19.037288,43.50635 17.918644,43.139522 16.8,42.772694 15.816102,42.489795 15.732204,42.510858 c -0.0839,0.02106 -0.152543,-0.04706 -0.152543,-0.151389 0,-0.187041 -0.54069,-0.429777 -0.892514,-0.400682 -0.09936,0.0082 -0.236646,-0.06675 -0.305085,-0.166591 -0.06844,-0.09984 -0.835149,-0.669205 -1.7038,-1.265253 C 10.697893,39.168063 7.9993832,36.343653 6.9423358,34.52341 6.4985865,33.75927 5.9951967,32.993744 5.8236917,32.822239 5.6521869,32.650733 5.5347459,32.480992 5.562712,32.445036 5.6979722,32.27113 5.5866266,31.770075 5.3593222,31.529782 5.2194917,31.381961 5.075527,31.089244 5.0394007,30.879301 5.0032743,30.669358 4.8745958,30.257493 4.7534483,29.964047 4.6323008,29.6706 4.5156299,29.338983 4.4941795,29.227118 4.4727292,29.115254 4.4342355,28.977966 4.4086381,28.922034 4.0510588,28.140697 3.7774124,21.899371 4.0793171,21.410879 c 0.076303,-0.12346 0.1187743,-0.428872 0.094382,-0.678693 -0.024393,-0.249821 0.00406,-0.591508 0.063229,-0.759305 0.3139584,-0.890352 0.532987,-1.918031 0.4406361,-2.067458 -0.057728,-0.09341 0.00176,-0.16983 0.1321929,-0.16983 0.1304346,0 0.1844714,-0.137288 0.1200818,-0.305085 -0.06439,-0.167796 -0.0513,-0.305428 0.029087,-0.305847 0.080388,-4.19e-4 0.3204323,-0.435165 0.533433,-0.966101 0.2130006,-0.530937 0.6906352,-1.491611 1.0614101,-2.134831 0.3707748,-0.643221 0.6390576,-1.169492 0.5961838,-1.169492 -0.042874,0 0.1982545,-0.311981 0.5358405,-0.693291 0.3375863,-0.381309 0.6272335,-0.755563 0.6436609,-0.831676 0.047233,-0.218841 2.6612758,-2.8567436 2.7864918,-2.811925 0.06191,0.022158 0.450889,-0.2696665 0.864407,-0.6484987 0.413518,-0.3788321 0.754761,-0.6248079 0.758319,-0.5466126 0.0036,0.078195 0.140846,-0.03549 0.305085,-0.2526332 0.164239,-0.2171432 0.298616,-0.3240852 0.298616,-0.2376488 0,0.1735975 1.451617,-0.662651 1.649858,-0.9504517 0.06844,-0.099357 0.205727,-0.171869 0.305085,-0.1611364 0.322042,0.034786 2.112854,-0.6705058 2.112854,-0.832125 0,-0.086255 0.137288,-0.1041456 0.305084,-0.039756 0.167797,0.06439 0.305267,0.038636 0.305489,-0.057231 2.24e-4,-0.095867 0.284809,-0.1942851 0.632415,-0.2187078 0.347605,-0.024423 0.744828,-0.1380355 0.882716,-0.2524727 0.137888,-0.1144372 0.306982,-0.1517921 0.375763,-0.083011 0.06878,0.068781 0.289174,0.059313 0.489761,-0.021041 0.911863,-0.3652867 6.126746,-0.3969414 7.178263,-0.043572 0.78621,0.2642103 2.127779,0.5121822 2.275861,0.4206632 0.09065,-0.056024 0.164817,0.00486 0.164817,0.1352911 0,0.1304345 0.137288,0.1844713 0.305085,0.1200817 0.167797,-0.06439 0.305085,-0.018627 0.305085,0.1016949 0,0.1203218 0.137288,0.1660845 0.305084,0.1016949 0.167797,-0.06439 0.305085,-0.037373 0.305085,0.060038 0,0.2209243 1.142461,0.633764 1.304744,0.4714819 0.06544,-0.065442 0.118985,-0.0068 0.118985,0.1303059 0,0.1371104 0.09153,0.1927259 0.20339,0.1235899 0.111864,-0.069136 0.20339,-0.023373 0.20339,0.1016949 0,0.1250683 0.09152,0.170831 0.203389,0.1016949 0.111865,-0.069136 0.20339,-0.048509 0.20339,0.045839 0,0.094348 0.274577,0.3337373 0.61017,0.5319771 0.335593,0.1982398 0.610169,0.2920055 0.610169,0.2083682 0,-0.083637 0.134378,0.025595 0.298617,0.2427384 0.164237,0.2171435 0.301526,0.3366993 0.305085,0.26568 0.0036,-0.071019 0.34332,0.1794175 0.755026,0.5565265 0.411708,0.3771089 0.783441,0.6507687 0.826078,0.6081329 0.04264,-0.042636 0.679094,0.576419 1.414352,1.375677 0.735261,0.7992585 1.517732,1.6133665 1.738829,1.8091295 0.221097,0.195762 0.341695,0.355932 0.267994,0.355932 -0.153203,0 1.085435,1.867524 1.364069,2.056638 0.100836,0.06844 0.166043,0.186771 0.144905,0.262961 -0.06805,0.245256 0.453744,1.341418 0.638534,1.341418 0.09829,0 0.155961,0.06864 0.128152,0.152542 -0.0765,0.230801 0.742658,2.694915 0.895887,2.694915 0.07345,0 0.08567,0.183051 0.02717,0.40678 -0.06183,0.236432 -0.0062,0.40678 0.132741,0.40678 0.131511,0 0.191241,0.07746 0.13273,0.172131 -0.05851,0.09467 -0.01955,0.666706 0.08658,1.271187 0.28106,1.600831 0.245733,5.940603 -0.05613,6.895665 -0.332969,1.053466 -1.017262,3.601041 -1.024344,3.813559 -0.0047,0.139831 -0.08474,0.254237 -0.177964,0.254237 -0.09322,0 -0.169491,0.115859 -0.169491,0.257465 0,0.141607 -0.360171,0.87381 -0.80038,1.627119 -0.440209,0.753309 -0.743054,1.369654 -0.67299,1.369654 0.07006,0 -0.05027,0.134377 -0.267417,0.298617 -0.217143,0.164237 -0.316023,0.301525 -0.219733,0.305084 0.09629,0.0036 -0.041,0.186474 -0.305084,0.406481 -0.264088,0.220007 -0.404492,0.403058 -0.31201,0.40678 0.09248,0.0037 -0.113453,0.243716 -0.457628,0.53332 -0.344176,0.289607 -0.625775,0.639753 -0.625775,0.778107 0,0.304267 -0.85262,1.136017 -1.164521,1.136017 -0.122676,0 -0.473343,0.297458 -0.779257,0.661017 -0.305915,0.36356 -0.611508,0.652394 -0.679097,0.641854 -0.152689,-0.02381 -2.314222,1.378778 -2.48461,1.61223 -0.06844,0.09377 -0.205729,0.163768 -0.305085,0.155551 -0.351825,-0.02909 -0.892515,0.213641 -0.892515,0.400682 0,0.104325 -0.06864,0.173038 -0.152542,0.152693 -0.296229,-0.07183 -1.881356,0.510667 -1.881356,0.691356 0,0.100762 -0.07642,0.135969 -0.169831,0.07824 -0.149011,-0.09209 -1.161002,0.123074 -2.067457,0.439583 -0.167797,0.05859 -0.55678,0.08649 -0.864407,0.06201 -0.307627,-0.02448 -0.559322,0.03102 -0.559322,0.123354 0,0.147922 -5.437383,0.255913 -5.582423,0.110874 z m 4.667169,-16.060574 v -6.151473 l -1.677966,-0.0011 -1.677967,-0.0011 v 6.211615 6.211614 l 1.677967,-0.05907 1.677966,-0.05907 z m -0.94881,-9.695584 c 1.118233,-0.578261 1.312904,-1.87039 0.440726,-2.92533 -0.473828,-0.573116 -1.117556,-0.71589 -1.966783,-0.436218 -1.297349,0.427251 -1.722588,2.103837 -0.789082,3.111106 0.568187,0.613085 1.432964,0.706632 2.315139,0.250442 z"
     id="path32"
     inkscape:connector-curvature="0" />
  <path
     style="fill:#1a1a1a;stroke-width:0.20338982"
     d="m 20.766102,43.954285 c -0.447458,-0.110628 -0.971927,-0.203286 -1.165487,-0.205908 -0.19356,-0.0026 -0.402423,-0.08648 -0.464141,-0.186335 -0.06172,-0.09986 -0.24657,-0.130007 -0.410784,-0.06699 -0.164214,0.06302 -0.298571,0.0056 -0.298571,-0.127525 0,-0.133155 -0.114407,-0.201563 -0.254238,-0.152018 -0.701714,0.248638 -6.314361,-2.572332 -5.914173,-2.97252 0.07398,-0.07398 0.02494,-0.134512 -0.10899,-0.134512 -0.133926,0 -0.524502,-0.320042 -0.867947,-0.711203 C 10.938326,39.006111 10.588881,38.72837 10.505227,38.780071 10.361496,38.868899 9.9038446,38.4833 9.3174048,37.779256 9.173164,37.606088 9.120474,37.464407 9.2003161,37.464407 c 0.079842,0 -0.067141,-0.225993 -0.3266304,-0.502206 C 8.6141969,36.685987 8.3263496,36.506681 8.2340253,36.56374 8.1417009,36.620799 8.0079536,36.435559 7.9368089,36.152097 7.8656643,35.868634 7.7335937,35.682358 7.6433192,35.738152 7.5530444,35.793944 7.3574145,35.564498 7.208586,35.228272 7.0597575,34.892044 6.8826144,34.616949 6.8149348,34.616949 c -0.06768,0 -0.5465508,-0.900344 -1.0641578,-2.000764 -0.9812541,-2.086123 -1.8087898,-5.005651 -1.6216676,-5.721207 0.059802,-0.228684 0.00597,-0.539614 -0.1196371,-0.690956 -0.3775495,-0.454918 -0.1330684,-5.58653 0.3259349,-6.84131 0.061381,-0.167797 0.1394837,-0.515387 0.1735623,-0.772423 0.092856,-0.700357 0.9764588,-2.888594 1.1664054,-2.888594 0.09107,0 0.1090155,-0.09153 0.03988,-0.20339 -0.069136,-0.111864 -0.023373,-0.20339 0.1016949,-0.20339 0.1250682,0 0.170831,-0.09152 0.1016949,-0.20339 -0.069136,-0.111864 -0.023373,-0.203389 0.1016949,-0.203389 0.1250683,0 0.170831,-0.09153 0.1016949,-0.20339 -0.069136,-0.111865 -0.028775,-0.20339 0.089691,-0.20339 0.1184662,0 0.1925119,-0.0737 0.1645458,-0.163775 C 6.25287,13.920116 8.0765222,11.391453 9.5717183,9.8867964 14.2866,5.1420825 20.43401,3.0974934 27.223501,4.015927 c 0.531232,0.071861 1.018064,0.2151005 1.081851,0.3183096 0.06379,0.1032092 0.203345,0.1336565 0.310129,0.067661 0.271259,-0.1676483 2.660713,0.6416397 4.314244,1.4611993 4.782891,2.3706 8.489573,6.5587271 10.169223,11.4900611 0.527849,1.549727 0.932654,3.358022 0.950701,4.246842 0.0057,0.279661 0.06305,1.08304 0.127501,1.785287 0.113154,1.23299 -0.211528,4.580284 -0.486716,5.017796 -0.07399,0.117626 -0.106473,0.38404 -0.0722,0.592031 0.04108,0.249299 -0.02005,0.327254 -0.179411,0.228767 -0.171132,-0.105765 -0.201663,-0.02316 -0.10454,0.282852 0.08446,0.266109 0.04913,0.43225 -0.09191,0.43225 -0.126004,0 -0.174179,0.08886 -0.107052,0.197475 0.210584,0.340733 -1.086738,3.145827 -2.322309,5.021337 -1.509195,2.290855 -3.490938,4.27105 -5.790513,5.785991 -1.650994,1.087662 -4.46079,2.370834 -5.500454,2.511936 -0.229332,0.03113 -0.554255,0.107034 -0.722052,0.168685 -1.118325,0.410893 -6.76792,0.642869 -8.033898,0.329878 z m 5.138619,-15.896658 0.05387,-6.050847 h -1.73184 -1.73184 v 6.10992 6.10992 l 1.677966,-0.05907 1.677966,-0.05907 z m -0.987675,-9.803968 c 1.188,-0.614338 1.279723,-2.139159 0.184133,-3.061038 -0.680351,-0.572477 -0.856033,-0.600534 -1.768534,-0.282434 -1.277747,0.445425 -1.624563,2.069864 -0.649985,3.044441 0.6636,0.6636 1.351385,0.755648 2.234386,0.299031 z"
     id="path17"
     inkscape:connector-curvature="0" />
</svg>
