<?xml version="1.0" encoding="UTF-8" standalone="no"?>
<svg
   xmlns:dc="http://purl.org/dc/elements/1.1/"
   xmlns:cc="http://creativecommons.org/ns#"
   xmlns:rdf="http://www.w3.org/1999/02/22-rdf-syntax-ns#"
   xmlns:svg="http://www.w3.org/2000/svg"
   xmlns="http://www.w3.org/2000/svg"
   xmlns:sodipodi="http://sodipodi.sourceforge.net/DTD/sodipodi-0.dtd"
   xmlns:inkscape="http://www.inkscape.org/namespaces/inkscape"
   height="48"
   width="48"
   version="1.1"
   id="svg4164"
   sodipodi:docname="settings_darkgrey_material.svg"
   inkscape:version="0.92.5 (2060ec1f9f, 2020-04-08)">
  <metadata
     id="metadata4170">
    <rdf:RDF>
      <cc:Work
         rdf:about="">
        <dc:format>image/svg+xml</dc:format>
        <dc:type
           rdf:resource="http://purl.org/dc/dcmitype/StillImage" />
        <dc:title />
      </cc:Work>
    </rdf:RDF>
  </metadata>
  <defs
     id="defs4168" />
  <sodipodi:namedview
     pagecolor="#ffffff"
     bordercolor="#666666"
     borderopacity="1"
     objecttolerance="10"
     gridtolerance="10"
     guidetolerance="10"
     inkscape:pageopacity="0"
     inkscape:pageshadow="2"
     inkscape:window-width="1294"
     inkscape:window-height="704"
     id="namedview4166"
     showgrid="false"
     inkscape:zoom="4.9166667"
     inkscape:cx="24"
     inkscape:cy="24"
     inkscape:window-x="72"
     inkscape:window-y="27"
     inkscape:window-maximized="1"
     inkscape:current-layer="svg4164" />
  <path
     d="m19.15 44.3-1.05-6.4q-.85-.3-1.85-.875T14.5 35.85L8.55 38.6 3.6 29.9l5.5-4q-.1-.4-.125-.95-.025-.55-.025-.95 0-.4.025-.95.025-.55.125-.95l-5.5-4 4.95-8.7 6 2.75q.7-.6 1.7-1.15 1-.55 1.85-.85l1.05-6.45h9.7l1.05 6.4q.85.35 1.875.875T33.5 12.15l6-2.75 4.9 8.7-5.5 3.9q.1.45.125 1 .025.55.025 1 0 .45-.025.975-.025.525-.125.975l5.5 3.95-4.95 8.7-6-2.75q-.7.6-1.675 1.2-.975.6-1.875.85l-1.05 6.4ZM24 30.5q2.7 0 4.6-1.9 1.9-1.9 1.9-4.6 0-2.7-1.9-4.6-1.9-1.9-4.6-1.9-2.7 0-4.6 1.9-1.9 1.9-1.9 4.6 0 2.7 1.9 4.6 1.9 1.9 4.6 1.9Z"
     id="path4162" />
  <path
     style="fill:#333333;stroke-width:0.20338982"
     d="m 19.238722,44.125424 c -0.0011,-0.02797 -0.229009,-1.377966 -0.506519,-3 -0.27751,-1.622034 -0.505443,-3.011675 -0.506519,-3.08809 -0.0011,-0.07642 -0.573989,-0.449482 -1.273142,-0.829034 -0.699152,-0.379552 -1.553629,-0.859238 -1.898837,-1.065968 l -0.627651,-0.375874 -2.914605,1.357566 C 9.9084167,37.870686 8.5799974,38.458656 8.5594064,38.430626 8.5388152,38.402595 7.4413052,36.469328 6.1204953,34.134476 4.2382424,30.807138 3.7809125,29.853753 4.0052739,29.724923 4.1627122,29.634523 5.3770125,28.75333 6.7037188,27.766719 L 9.1159125,25.972881 9.1104986,23.97337 9.1050848,21.973859 6.698305,20.236717 C 5.3745763,19.281289 4.1749262,18.390862 4.0324161,18.257991 3.8255613,18.065126 4.249314,17.178089 6.1336395,13.859522 7.4318225,11.573236 8.5294688,9.6671412 8.5728537,9.6237565 8.6162384,9.5803719 9.9826353,10.15595 11.609291,10.90282 l 2.957557,1.357944 0.919966,-0.632953 c 0.505982,-0.348125 1.32878,-0.813792 1.828441,-1.034815 0.49966,-0.221024 0.908474,-0.441353 0.908474,-0.48962 0,-0.1503285 0.818042,-5.2523854 0.93674,-5.8423591 l 0.11253,-0.559322 H 24.0365 c 2.619924,0 4.7635,0.071715 4.7635,0.1593661 0,0.3184483 0.990492,6.186851 1.053671,6.242718 0.03574,0.0316 0.568363,0.307517 1.183617,0.613148 0.615254,0.305631 1.417029,0.779635 1.781724,1.053341 l 0.663081,0.497648 2.959145,-1.3558 c 1.627529,-0.74569 2.997173,-1.3177739 3.043649,-1.2712973 0.09167,0.09167 4.023336,7.0411653 4.480274,7.9191973 l 0.279089,0.536286 -2.688228,1.890537 -2.688225,1.890536 0.03226,2.105382 0.03226,2.105381 2.408416,1.732095 c 1.324627,0.952649 2.514189,1.841971 2.643468,1.976269 0.179516,0.18648 -0.328763,1.229356 -2.151144,4.413667 -1.312412,2.293221 -2.477028,4.152137 -2.58804,4.130927 -0.111013,-0.02121 -1.412766,-0.593245 -2.892785,-1.271186 -1.480021,-0.677943 -2.765838,-1.232622 -2.857371,-1.232622 -0.09153,0 -0.780623,0.411865 -1.531308,0.915254 -0.750685,0.50339 -1.489607,0.915255 -1.642047,0.915255 -0.152441,0 -0.334099,0.09212 -0.403687,0.204714 -0.107174,0.173414 -1.110111,5.702088 -1.115869,6.151218 -0.0016,0.133009 -9.55812,0.234632 -9.563233,0.101695 z m 7.575003,-14.160265 c 3.539461,-1.713425 4.870518,-6.350032 2.734988,-9.527065 -2.875786,-4.278312 -9.209397,-3.884001 -11.467283,0.713917 -0.488187,0.994135 -0.569566,1.406864 -0.569566,2.888667 0,1.423149 0.0882,1.908616 0.498842,2.745763 0.670865,1.367638 2.201023,2.822166 3.516428,3.342624 1.451453,0.574286 3.919775,0.497758 5.286591,-0.163906 z"
     id="path4172"
     inkscape:connector-curvature="0" />
  <path
     style="fill:#333333;stroke-width:0.20338982"
     d="m 19.342373,44.020615 c -0.111864,-0.08219 -0.225084,-0.378242 -0.251599,-0.657903 -0.02651,-0.279661 -0.09248,-0.783051 -0.146597,-1.118644 -0.148472,-0.920773 -0.234222,-1.510609 -0.408858,-2.812353 -0.107028,-0.797794 -0.300294,-1.31751 -0.59123,-1.589884 -0.434445,-0.406729 -2.193373,-1.431677 -2.503398,-1.458759 -0.09136,-0.008 -0.336788,-0.173518 -0.545389,-0.367859 -0.360835,-0.33617 -0.425105,-0.331779 -1.322034,0.09029 -0.518518,0.244005 -1.010002,0.53517 -1.092187,0.647034 -0.08219,0.111865 -0.15083,0.133204 -0.152543,0.04742 -0.0017,-0.08578 -0.483623,0.0927 -1.070911,0.396618 -0.587288,0.303923 -1.13644,0.534279 -1.220339,0.511902 -0.083898,-0.02238 -0.1525421,0.05624 -0.1525421,0.174707 0,0.118467 -0.091526,0.158828 -0.2033899,0.08969 -0.1118644,-0.06914 -0.2033898,-0.04874 -0.2033898,0.04533 0,0.09407 -0.2132597,0.18868 -0.4739103,0.210254 C 8.6393613,38.25865 8.4202122,38.069664 8.0531226,37.40842 7.7907599,36.935823 7.518315,36.50339 7.4476891,36.447458 7.3770632,36.391525 7.198964,36.048305 7.0519132,35.684746 6.9048621,35.321186 6.7225126,35.023729 6.6466919,35.023729 c -0.075821,0 -0.2536918,-0.320339 -0.3952694,-0.711865 C 6.1098451,33.920339 5.908408,33.6 5.8037843,33.6 c -0.1046238,0 -0.1742527,-0.06864 -0.1547309,-0.152542 0.062338,-0.26791 -0.49977,-1.271187 -0.7122089,-1.271187 -0.1125525,0 -0.147731,-0.05691 -0.078174,-0.126466 0.069557,-0.06956 -0.1035599,-0.580403 -0.3847034,-1.135214 L 3.9627967,29.905847 4.4935724,29.41394 c 0.2919266,-0.270549 0.5691469,-0.491906 0.6160451,-0.491906 0.1977927,0 1.9276708,-1.31278 1.9276708,-1.462881 0,-0.09033 0.1184558,-0.164238 0.2632354,-0.164238 0.1447796,0 0.6596939,-0.369691 1.1442541,-0.821536 L 9.3257964,25.651841 9.1792701,23.778788 C 9.0189211,21.729038 8.9816948,21.6 8.5507085,21.6 c -0.1611948,0 -0.2930813,-0.07391 -0.2930813,-0.164237 0,-0.190046 -1.7559114,-1.462882 -2.0180841,-1.462882 -0.096626,0 -0.2283655,-0.137288 -0.292755,-0.305084 C 5.8823983,19.5 5.7404114,19.362712 5.6312617,19.362712 c -0.10915,0 -0.5293737,-0.303162 -0.9338306,-0.673693 L 3.9620551,18.015325 4.664591,16.667497 c 0.3863947,-0.741305 0.6512035,-1.39916 0.588464,-1.4619 -0.06274,-0.06274 -0.021983,-0.114072 0.090569,-0.114072 0.2124389,0 0.7745464,-1.003278 0.7122089,-1.271186 -0.019522,-0.0839 0.04134,-0.152542 0.1352487,-0.152542 0.1873605,0 0.7352026,-1.026682 0.6783106,-1.271187 -0.019522,-0.0839 0.04134,-0.152542 0.1352487,-0.152542 0.1589089,0 0.7639772,-1.112919 0.6107764,-1.123418 -0.03831,-0.0026 0.1362775,-0.225816 0.3879724,-0.495978 0.251695,-0.270163 0.4576272,-0.565473 0.4576272,-0.6562436 0,-0.3082467 0.5560728,-0.1665482 2.0904431,0.5326866 0.842081,0.383749 1.58571,0.643071 1.65251,0.576271 0.0668,-0.0668 0.121454,5.8e-4 0.121454,0.149733 0,0.149152 0.05781,0.213373 0.128473,0.142713 0.07066,-0.07066 0.516943,0.09918 0.991738,0.377432 0.704022,0.412585 0.96171,0.468478 1.39695,0.303 0.293527,-0.111599 0.533686,-0.296698 0.533686,-0.411332 0,-0.114633 0.06864,-0.190245 0.152543,-0.168026 0.210161,0.05566 2.687325,-1.230921 2.72675,-1.416207 0.01751,-0.082288 0.06428,-0.3784277 0.103943,-0.6580887 0.205893,-1.4518786 0.394312,-2.6588632 0.571513,-3.661017 0.02967,-0.1677966 0.125222,-0.7068518 0.212339,-1.1979005 l 0.158394,-0.8928159 4.65426,0.1030361 c 2.559842,0.05667 4.705609,0.1543858 4.768369,0.2171466 0.06276,0.062761 0.146973,0.3955739 0.187139,0.7395845 0.04016,0.3440107 0.118792,0.9000502 0.174724,1.2356434 0.229525,1.3771507 0.29522,1.7601079 0.418468,2.4393736 0.07104,0.3915254 0.158197,0.9216981 0.193682,1.1781614 0.08451,0.6108015 0.808379,1.1750065 1.389741,1.0832125 0.0839,-0.01325 0.152542,0.07284 0.152542,0.191308 0,0.118466 0.09153,0.158827 0.20339,0.08969 0.111864,-0.06914 0.20339,-0.01352 0.20339,0.12359 0,0.13711 0.05141,0.19788 0.114248,0.135044 0.06283,-0.06284 0.348927,0.103245 0.635758,0.36907 0.286828,0.265825 0.593703,0.438701 0.681939,0.384167 0.08824,-0.05453 0.199237,0.01583 0.246667,0.156353 0.06474,0.191812 0.284553,0.157642 0.881779,-0.137073 0.437548,-0.215917 0.864185,-0.376087 0.948083,-0.355932 0.0839,0.02015 0.152542,-0.05488 0.152542,-0.166744 0,-0.111865 0.07051,-0.180509 0.156682,-0.152543 0.204484,0.06636 1.942001,-0.699418 2.103346,-0.927012 0.06844,-0.09654 0.205728,-0.168164 0.305084,-0.159164 0.09936,0.009 0.493351,-0.08684 0.875537,-0.2129692 0.60557,-0.1998564 0.728855,-0.1801202 0.959166,0.1535502 0.145352,0.210586 0.381807,0.517922 0.525451,0.682969 0.143646,0.165047 0.229831,0.302335 0.19152,0.305084 -0.15302,0.01098 0.451788,1.123644 0.610778,1.123644 0.09391,0 0.151924,0.06864 0.128925,0.152542 -0.04663,0.170106 0.632149,1.518875 0.844456,1.677966 0.07464,0.05593 0.256023,0.399153 0.403074,0.762712 0.147051,0.36356 0.347788,0.661017 0.44608,0.661017 0.09829,0 0.162224,0.06864 0.14207,0.152543 -0.05256,0.218784 0.6954,1.677966 0.860105,1.677966 0.197494,0 0.124192,0.656955 -0.113507,1.01728 -0.110813,0.16798 -0.461038,0.43935 -0.778278,0.603045 -0.317241,0.163696 -0.802464,0.506767 -1.078277,0.76238 -0.275811,0.255614 -0.57492,0.464752 -0.664686,0.464752 -0.08977,0 -0.391747,0.205932 -0.671067,0.457627 -0.279321,0.251695 -0.773194,0.611835 -1.097497,0.800311 -0.544542,0.316475 -0.594889,0.447517 -0.658271,1.713366 -0.09306,1.858568 0.114876,3.122101 0.540498,3.284306 0.18793,0.07162 0.569571,0.340867 0.848089,0.598324 0.278518,0.257455 0.571261,0.4681 0.650538,0.4681 0.07928,0 0.391035,0.228814 0.692795,0.508475 0.301759,0.279661 0.617991,0.508474 0.70274,0.508474 0.284872,0 1.617022,1.292299 1.617022,1.568648 0,0.150403 -0.292755,0.842884 -0.650566,1.538848 -0.357812,0.695961 -0.632388,1.33403 -0.61017,1.417928 0.02222,0.0839 -0.03644,0.152542 -0.130344,0.152542 -0.187361,0 -0.735204,1.026682 -0.678312,1.271187 0.01953,0.0839 -0.04134,0.152542 -0.135248,0.152542 -0.141773,0 -0.636868,0.865664 -0.697944,1.220339 -0.0096,0.05593 -0.126838,0.211021 -0.260457,0.34464 -0.133621,0.133619 -0.505979,0.658713 -0.827467,1.166874 -0.516283,0.816067 -0.963069,1.065224 -1.297627,0.723639 -0.120513,-0.123043 -2.252941,-1.112685 -2.424163,-1.125035 -0.06502,-0.0047 -0.433202,-0.176276 -0.818192,-0.381305 -1.295718,-0.690041 -1.799429,-0.745721 -2.617741,-0.289365 -2.480293,1.383214 -2.855012,1.672351 -2.972687,2.293741 -0.06486,0.342509 -0.167081,0.851557 -0.227154,1.131218 -0.310058,1.443415 -0.684891,3.727068 -0.645706,3.933921 0.0297,0.156785 -0.567582,0.279385 -1.785883,0.366576 -2.583561,0.184901 -7.486309,0.196586 -7.728813,0.01843 z m 6.610169,-13.711949 c 0.651537,-0.158306 1.627119,-0.630433 1.627119,-0.787431 0,-0.09076 0.164443,-0.217202 0.36543,-0.280992 0.567735,-0.180193 1.835657,-1.978836 2.249028,-3.190419 0.492509,-1.443527 0.43498,-3.426076 -0.13693,-4.718974 -0.94359,-2.133144 -3.559983,-3.826616 -5.935155,-3.841557 -2.700856,-0.01699 -4.658195,1.202721 -6.107094,3.805622 -0.673698,1.210278 -0.667109,4.299621 0.012,5.626229 0.654783,1.279086 2.640588,2.919854 4.162891,3.43958 0.395397,0.134992 3.149711,0.09689 3.762711,-0.05206 z"
     id="path16"
     inkscape:connector-curvature="0" />
  <path
     style="fill:#1a1a1a;stroke-width:0.20338982"
     d="M 19.225116,44.125424 C 19.17484,43.961146 19.033529,43.150963 18.932449,42.447458 18.868157,42 18.786196,41.450847 18.750312,41.227119 c -0.03588,-0.223729 -0.133986,-0.934316 -0.218005,-1.579082 -0.191688,-1.471034 -0.608779,-2.002418 -2.197665,-2.799885 -0.6949,-0.348775 -1.424806,-0.741779 -1.622013,-0.873346 -0.290592,-0.193869 -0.560464,-0.139198 -1.423729,0.288421 -2.676708,1.325913 -3.5148716,1.706052 -3.6574672,1.658807 -0.084407,-0.02797 -0.1534666,0.02072 -0.1534666,0.108181 0,0.08747 -0.2275306,0.17786 -0.5056237,0.200876 C 8.5781926,38.263712 8.3747344,38.105339 8.0494935,37.51274 7.8200194,37.094632 7.4131616,36.386441 7.1453649,35.938983 6.8775683,35.491525 6.5142282,34.850847 6.3379425,34.515254 6.1616568,34.179661 5.7946437,33.538983 5.5223578,33.091525 5.2500718,32.644068 4.8746884,31.934746 4.6881724,31.515254 4.5016564,31.095763 4.2903462,30.752361 4.2185941,30.752138 4.146842,30.751934 4.0689389,30.47734 4.0454761,30.141968 c -0.023463,-0.335369 0.038644,-0.609765 0.1380145,-0.609765 0.099371,0 0.3016185,-0.114567 0.4494393,-0.254595 C 4.7807507,29.13758 5.2677967,28.768875 5.7152544,28.458264 7.2423373,27.398207 7.9523425,26.86607 8.6000895,26.296127 9.2456287,25.728126 9.2473242,25.72138 9.1468659,24.120807 9.0213025,22.120247 8.9179341,21.6 8.646004,21.6 8.5282805,21.6 8.304387,21.485593 8.1484628,21.345763 7.6140711,20.866528 7.3309986,20.651623 6.7269174,20.266543 6.3942314,20.054468 6.048842,19.764348 5.9593852,19.621832 c -0.089457,-0.142516 -0.2557361,-0.25912 -0.3695093,-0.25912 -0.1137732,0 -0.5285438,-0.30349 -0.9217124,-0.674422 L 3.9533114,18.013868 4.6308931,16.603544 c 0.3726699,-0.775678 0.791851,-1.53113 0.9315135,-1.678783 0.1396626,-0.147653 0.3097541,-0.490874 0.3779814,-0.762712 0.068227,-0.271839 0.1957149,-0.494252 0.283306,-0.494252 0.087591,0 0.3135101,-0.343221 0.5020421,-0.762712 0.7573721,-1.685185 1.6878675,-3.1016951 2.0374816,-3.1016951 0.3137455,0 2.8760033,1.0590641 4.3242183,1.7873391 1.132326,0.569422 1.84227,0.635952 2.185605,0.204818 0.115343,-0.144839 0.826434,-0.570789 1.580201,-0.946555 0.753768,-0.375766 1.382168,-0.78763 1.396444,-0.9152538 0.01428,-0.1276239 0.05382,-0.415094 0.08787,-0.6388228 0.03405,-0.2237289 0.115318,-0.765466 0.180587,-1.2038604 0.06527,-0.4383941 0.16008,-1.0333094 0.210694,-1.3220339 0.05061,-0.2887242 0.15109,-0.8910549 0.223283,-1.3385125 0.07219,-0.4474576 0.159648,-0.9508475 0.194345,-1.1186441 0.0347,-0.1677966 0.07009,-0.383519 0.07865,-0.4793831 0.01753,-0.1963527 9.266645,-0.1001054 9.465208,0.098496 0.133084,0.1331108 0.223113,0.5418494 0.419882,1.9063108 0.117551,0.8151398 0.149961,1.0116547 0.386469,2.3433467 0.289607,1.6306814 0.438055,1.9255811 1.144172,2.2729441 0.385838,0.189808 0.815933,0.445111 0.955763,0.567341 0.139831,0.12223 0.255639,0.149984 0.257351,0.06167 0.0016,-0.08831 0.07036,-0.05676 0.152543,0.0701 0.08219,0.126864 0.496277,0.424796 0.920202,0.66207 0.741244,0.41488 0.795792,0.418077 1.423729,0.08345 0.359126,-0.191375 0.721599,-0.329138 0.805497,-0.306138 0.0839,0.023 0.152542,-0.04971 0.152542,-0.161572 0,-0.111865 0.121776,-0.20339 0.270615,-0.20339 0.148838,0 0.685501,-0.210042 1.192584,-0.46676 0.507081,-0.256718 1.311309,-0.595254 1.787172,-0.752303 0.85652,-0.2826776 0.869486,-0.2796629 1.292032,0.3004 0.451328,0.619573 0.858614,1.315317 1.549821,2.647476 0.232169,0.447458 0.645715,1.179661 0.918992,1.627119 0.273277,0.447458 0.682666,1.179661 0.909753,1.627119 0.227086,0.447457 0.524219,0.96777 0.660294,1.15625 0.33105,0.458543 -0.06353,1.207199 -0.81182,1.540308 -0.302007,0.134442 -0.796804,0.475088 -1.09955,0.756991 -0.302743,0.281904 -0.624018,0.512552 -0.713941,0.512552 -0.08992,0 -0.39623,0.205932 -0.680678,0.457627 -0.284451,0.251695 -0.69538,0.558137 -0.913176,0.680981 -0.738649,0.416621 -0.932589,1.091756 -0.834702,2.90573 l 0.09202,1.705354 0.885206,0.777499 c 0.486862,0.427625 0.957844,0.781401 1.046623,0.786171 0.08878,0.0048 0.408185,0.237486 0.709788,0.517147 0.301601,0.279661 0.620384,0.508474 0.708407,0.508474 0.281857,0 1.572929,1.275743 1.572929,1.554252 0,0.289404 -1.238141,2.955651 -1.450578,3.123714 -0.0707,0.05593 -0.317607,0.467797 -0.548687,0.915255 -0.231077,0.447457 -0.538676,1.042372 -0.683554,1.322033 -0.144879,0.279661 -0.424241,0.685902 -0.620807,0.902758 -0.196564,0.216857 -0.357391,0.468552 -0.357391,0.559322 0,0.09077 -0.0024,0.208623 -0.0052,0.261891 -0.0098,0.181579 -0.956074,1.123487 -1.128701,1.123487 -0.150133,0 -1.656434,-0.697224 -3.381086,-1.565014 -0.301902,-0.151905 -0.922243,-0.407912 -1.378537,-0.568901 l -0.82965,-0.292702 -1.711911,1.011151 c -0.941553,0.556131 -1.762154,1.092439 -1.823559,1.191797 -0.144618,0.233998 -0.886379,3.996222 -0.990742,5.025067 l -0.08032,0.791831 -1.301245,0.12877 c -1.250789,0.123775 -8.301788,0.229931 -8.333759,0.125468 z m 7.65417,-14.284849 c 1.295612,-0.633883 2.406285,-1.817563 3.074014,-3.276075 0.694354,-1.516672 0.697871,-3.729267 0.0083,-5.226624 -0.595951,-1.294075 -1.797991,-2.524325 -3.120437,-3.19367 -1.414839,-0.716107 -3.621019,-0.805382 -5.204758,-0.210615 -4.18316,1.57097 -5.513382,7.271701 -2.436543,10.441928 1.555624,1.602842 3.096737,2.218782 5.206086,2.080729 0.947103,-0.06198 1.750281,-0.261917 2.473332,-0.615673 z"
     id="path18"
     inkscape:connector-curvature="0" />
</svg>
