<?xml version="1.0" encoding="UTF-8" standalone="no"?>
<!-- Created with Inkscape (http://www.inkscape.org/) -->

<svg
   width="132.29166mm"
   height="30.546152mm"
   viewBox="0 0 132.29166 30.546152"
   version="1.1"
   id="svg85"
   xmlns="http://www.w3.org/2000/svg"
   xmlns:svg="http://www.w3.org/2000/svg">
  <defs
     id="defs82" />
  <g
     id="layer1"
     transform="translate(-43.146,-133.02321)">
    <path
       class="st0"
       d="m 75.001833,160.94998 c -0.15875,0.13229 -0.370417,0.21167 -0.582083,0.18521 -0.211667,0 -0.423334,-0.0529 -0.608542,-0.21167 -0.185208,-0.15875 -0.291042,-0.39687 -0.291042,-0.635 h -0.423333 v 0.0265 c -0.02646,0.3175 0.105833,0.60854 0.343958,0.84667 0.264584,0.23812 0.608542,0.37042 0.978959,0.34396 0.343958,0.0265 0.661458,-0.0794 0.926041,-0.29104 0.423334,-0.39688 0.449792,-1.03188 0.07937,-1.48167 0,0 -0.02646,-0.0265 -0.02646,-0.0265 -0.264583,-0.23812 -0.582083,-0.39687 -0.899583,-0.52917 -0.238125,-0.10583 -0.47625,-0.23812 -0.661459,-0.39687 -0.238125,-0.26458 -0.211666,-0.635 0.05292,-0.87313 0.15875,-0.13229 0.370417,-0.21166 0.582083,-0.1852 0.211667,0 0.449792,0.0794 0.582084,0.23812 0.132291,0.15875 0.211666,0.37042 0.211666,0.58208 h 0.423334 v -0.0264 c 0.02646,-0.3175 -0.105834,-0.635 -0.3175,-0.84667 -0.238125,-0.23813 -0.582084,-0.37042 -0.899584,-0.34396 -0.3175,-0.0265 -0.635,0.10583 -0.873125,0.3175 -0.211666,0.18521 -0.343958,0.44979 -0.343958,0.74083 0,0.26459 0.105833,0.50271 0.291042,0.68792 0.264583,0.23813 0.582083,0.39688 0.899583,0.52917 0.238125,0.10583 0.47625,0.23812 0.661458,0.42333 0.132292,0.13229 0.185209,0.29104 0.185209,0.47625 -0.05292,0.18521 -0.132292,0.34396 -0.291042,0.44979 z m 3.360208,0.44979 c 0.185209,-0.0794 0.343959,-0.21166 0.47625,-0.37041 l -0.185208,-0.3175 c -0.105833,0.13229 -0.264583,0.26458 -0.423333,0.3175 -0.185209,0.0794 -0.370417,0.13229 -0.582084,0.13229 -0.291041,0 -0.582083,-0.13229 -0.767291,-0.39688 -0.185209,-0.29104 -0.291042,-0.635 -0.291042,-0.97895 v -0.34396 h 2.301875 v -0.44979 c 0.02646,-0.42334 -0.105833,-0.87313 -0.343958,-1.21709 -0.238125,-0.29104 -0.608542,-0.47625 -0.978959,-0.44979 -0.396875,0 -0.767291,0.18521 -1.005416,0.50271 -0.291042,0.37042 -0.423334,0.82021 -0.423334,1.27 v 0.66146 c -0.02646,0.44979 0.132292,0.89958 0.423334,1.24354 0.264583,0.3175 0.661458,0.50271 1.058333,0.50271 0.291042,0.0265 0.529167,-0.0265 0.740833,-0.10584 z m -0.105833,-3.33375 c 0.15875,0.23813 0.238125,0.52917 0.238125,0.82021 v 0.15875 h -1.878542 c 0,-0.34396 0.105834,-0.66146 0.291042,-0.9525 0.15875,-0.23812 0.423333,-0.39687 0.687917,-0.39687 0.264583,0.0265 0.529166,0.13229 0.661458,0.37041 z m 1.852083,2.69875 c -0.15875,-0.3175 -0.264583,-0.66145 -0.238125,-1.00541 v -0.635 c 0,-0.34396 0.07938,-0.68792 0.238125,-1.00542 0.15875,-0.26458 0.449792,-0.42333 0.767292,-0.39687 0.238125,0 0.47625,0.10583 0.635,0.29104 0.185208,0.21166 0.264583,0.47625 0.264583,0.76729 h 0.396875 v -0.0265 c 0.02646,-0.37042 -0.105833,-0.74083 -0.370416,-1.03187 -0.238125,-0.26459 -0.582084,-0.39688 -0.926042,-0.39688 -0.423333,-0.0265 -0.820208,0.15875 -1.084792,0.50271 -0.264583,0.37042 -0.396875,0.82021 -0.370416,1.29646 v 0.635 c -0.02646,0.44979 0.105833,0.89958 0.370416,1.29646 0.47625,0.58208 1.322917,0.66145 1.905,0.1852 0.02646,-0.0264 0.05292,-0.0529 0.07937,-0.0794 0.264584,-0.23813 0.396875,-0.58208 0.370417,-0.92604 v -0.0265 h -0.396875 c 0.02646,0.26458 -0.07938,0.52917 -0.264583,0.71437 -0.15875,0.15875 -0.396875,0.26459 -0.608542,0.26459 -0.3175,0 -0.608542,-0.15875 -0.767292,-0.42334 z m 4.92125,0.68792 h 0.396875 v -4.04812 h -0.449792 v 2.93687 c -0.05292,0.21167 -0.185208,0.42333 -0.343958,0.58208 -0.185208,0.1323 -0.396875,0.21167 -0.635,0.21167 -0.238125,0 -0.449792,-0.10583 -0.555625,-0.3175 -0.15875,-0.3175 -0.211667,-0.68792 -0.185208,-1.05833 v -2.35479 h -0.449792 v 2.35479 c -0.02646,0.47625 0.07938,0.92604 0.291042,1.34937 0.185208,0.29104 0.502708,0.44979 0.846666,0.42334 0.211667,0 0.449792,-0.0529 0.608542,-0.18521 0.185208,-0.13229 0.343958,-0.3175 0.423333,-0.52917 z m 2.883958,-4.07458 c -0.02646,0 -0.07937,-0.0265 -0.105833,-0.0265 -0.05292,0 -0.105833,0 -0.132292,0 -0.211666,0 -0.396875,0.0794 -0.555625,0.18521 -0.15875,0.15875 -0.291041,0.34396 -0.370416,0.55562 l -0.05292,-0.66146 H 86.27308 v 4.04813 h 0.449791 v -2.88396 c 0.05292,-0.21167 0.15875,-0.42333 0.291042,-0.58208 0.132292,-0.13229 0.343958,-0.21167 0.529167,-0.21167 l 0.291041,0.0265 z m 2.407709,4.02166 c 0.185208,-0.0794 0.343958,-0.21166 0.449791,-0.39687 l -0.185208,-0.3175 c -0.105833,0.13229 -0.264583,0.26458 -0.423333,0.3175 -0.185209,0.0794 -0.370417,0.13229 -0.582084,0.13229 -0.291041,0 -0.582083,-0.13229 -0.767291,-0.39687 -0.185209,-0.29105 -0.291042,-0.635 -0.291042,-0.97896 v -0.34396 h 2.328333 v -0.44979 c 0.02646,-0.42334 -0.105833,-0.87313 -0.343958,-1.21709 -0.238125,-0.29104 -0.608542,-0.47625 -0.978958,-0.44979 -0.396875,0 -0.767292,0.18521 -1.005417,0.50271 -0.291042,0.37042 -0.423333,0.82021 -0.423333,1.27 v 0.66146 c -0.02646,0.44979 0.132291,0.89958 0.423333,1.24354 0.264583,0.3175 0.661458,0.50271 1.058333,0.50271 0.238125,0.0529 0.47625,0 0.740834,-0.0794 z m -0.105834,-3.33375 c 0.15875,0.23813 0.238125,0.52917 0.238125,0.82021 v 0.15875 h -1.878541 c 0,-0.34396 0.105833,-0.66146 0.291041,-0.9525 0.15875,-0.23812 0.423334,-0.39687 0.687917,-0.39687 0.264583,0.0265 0.502708,0.13229 0.661458,0.37041 z m 2.910417,-0.66145 h -0.502708 l 1.27,3.9952 -0.15875,0.52917 c -0.05292,0.18521 -0.132292,0.37042 -0.238125,0.52917 -0.07937,0.13229 -0.211667,0.21166 -0.370417,0.21166 h -0.132292 l -0.132291,-0.0264 -0.05292,0.39687 c 0.05292,0.0265 0.105833,0.0265 0.15875,0.0265 0.05292,0 0.105833,0.0265 0.15875,0.0265 0.238125,0 0.47625,-0.10584 0.608542,-0.29104 0.15875,-0.21167 0.264583,-0.4498 0.343958,-0.68792 l 1.42875,-4.70958 H 95.00433 l -0.978959,3.33375 h -0.02646 l -0.105833,-0.39688 z m 2.672292,2.32833 c -0.02646,0.47625 0.132291,0.92604 0.396875,1.29646 0.502708,0.60854 1.402291,0.66146 2.010833,0.15875 0.05292,-0.0529 0.105833,-0.10584 0.15875,-0.15875 0.291042,-0.37042 0.423333,-0.84667 0.396875,-1.29646 v -0.58208 c 0.02646,-0.47625 -0.132292,-0.92605 -0.396875,-1.29646 -0.502708,-0.60854 -1.402292,-0.68792 -1.984375,-0.18521 -0.05292,0.0529 -0.132292,0.10583 -0.185208,0.18521 -0.291042,0.37041 -0.423334,0.82021 -0.396875,1.29646 z m 0.449791,-0.60854 c -0.02646,-0.34396 0.07937,-0.71438 0.264584,-1.00542 0.291041,-0.42333 0.873125,-0.52917 1.296458,-0.23812 0.105833,0.0794 0.185208,0.15875 0.238125,0.23812 0.185208,0.29104 0.291042,0.66146 0.264583,1.00542 v 0.58208 c 0.02646,0.34396 -0.07937,0.71438 -0.264583,1.00542 -0.291042,0.42333 -0.873125,0.52916 -1.296458,0.23812 -0.105834,-0.0529 -0.185209,-0.15875 -0.238125,-0.23812 -0.185209,-0.29104 -0.291042,-0.66146 -0.264584,-1.00542 z m 5.423956,2.32833 h 0.39688 v -4.04812 h -0.44979 v 2.93687 c -0.0529,0.21167 -0.18521,0.42333 -0.34396,0.58208 -0.18521,0.1323 -0.39688,0.21167 -0.635,0.21167 -0.23813,0 -0.44979,-0.10583 -0.55563,-0.3175 -0.158747,-0.3175 -0.211664,-0.68792 -0.185206,-1.05833 v -2.35479 h -0.449791 v 2.35479 c -0.02646,0.47625 0.07937,0.92604 0.291041,1.34937 0.185209,0.29104 0.502706,0.44979 0.846666,0.42334 0.21167,0 0.44979,-0.0529 0.635,-0.18521 0.18521,-0.13229 0.34396,-0.3175 0.42333,-0.52917 z m 2.88396,-4.07458 c -0.0265,0 -0.0794,-0.0265 -0.10583,-0.0265 -0.0529,0 -0.10584,0 -0.13229,0 -0.21167,0 -0.39688,0.0794 -0.55563,0.18521 -0.15875,0.15875 -0.29104,0.34396 -0.37042,0.55562 l -0.0529,-0.66146 h -0.39687 v 4.04813 h 0.44979 v -2.88396 c 0.0529,-0.21167 0.15875,-0.42333 0.29104,-0.58208 0.13229,-0.13229 0.34396,-0.21167 0.52917,-0.21167 l 0.29104,0.0265 z m 1.79917,2.16958 c -0.0265,0.50271 0.10583,1.00542 0.34396,1.45521 0.1852,0.34396 0.55562,0.52917 0.9525,0.52917 0.21166,0 0.42333,-0.0529 0.58208,-0.15875 0.18521,-0.10584 0.3175,-0.26459 0.42333,-0.4498 l 0.0265,0.52917 h 0.39688 v -5.82083 h -0.44979 v 2.32833 c -0.10584,-0.18521 -0.23813,-0.34396 -0.42334,-0.44979 -0.1852,-0.10583 -0.37041,-0.15875 -0.58208,-0.15875 -0.39688,0 -0.76729,0.21167 -0.9525,0.58208 -0.23812,0.47625 -0.37042,1.00542 -0.34396,1.56104 v 0.0529 z m 0.44979,-0.0794 c -0.0265,-0.42334 0.0529,-0.84667 0.23812,-1.24355 0.10584,-0.29104 0.39688,-0.47625 0.71438,-0.47625 0.21167,0 0.39687,0.0529 0.55562,0.21167 0.15875,0.15875 0.26459,0.3175 0.34396,0.52917 v 1.98437 c -0.0794,0.18521 -0.18521,0.37042 -0.34396,0.50271 -0.15875,0.13229 -0.34395,0.18521 -0.55562,0.18521 -0.29104,0 -0.58208,-0.15875 -0.68792,-0.42333 -0.15875,-0.37042 -0.23812,-0.7673 -0.23812,-1.16417 z m 3.65125,-2.06375 h -0.44979 v 4.04812 h 0.44979 z m 0,-1.79917 h -0.44979 v 0.635 h 0.44979 z m 0.76729,4.18042 c -0.0265,0.44979 0.10583,0.89958 0.34396,1.27 0.37042,0.47625 1.00542,0.60854 1.53458,0.3175 0.18521,-0.10584 0.3175,-0.23813 0.42334,-0.42334 v 0.50271 c 0.0265,0.3175 -0.0529,0.635 -0.23813,0.89958 -0.15875,0.21167 -0.44979,0.34396 -0.71437,0.3175 -0.15875,0 -0.3175,-0.0264 -0.47625,-0.0529 -0.1323,-0.0529 -0.29105,-0.10584 -0.39688,-0.18521 l -0.13229,0.39687 c 0.15875,0.0794 0.3175,0.15875 0.47625,0.18521 0.15875,0.0529 0.34396,0.0794 0.52917,0.0794 0.39687,0.0265 0.76729,-0.13229 1.03187,-0.42334 0.26458,-0.34395 0.39688,-0.76729 0.37042,-1.19062 v -4.04813 h -0.37042 l -0.0529,0.55563 c -0.10583,-0.18521 -0.23812,-0.34396 -0.42333,-0.47625 -0.18521,-0.10583 -0.39688,-0.15875 -0.58209,-0.15875 -0.39687,0 -0.76729,0.18521 -0.9525,0.52917 -0.23812,0.42333 -0.37041,0.89958 -0.34395,1.37583 z m 0.44979,-0.55563 c -0.0265,-0.37042 0.0529,-0.74083 0.23813,-1.08479 0.13229,-0.26458 0.42333,-0.42333 0.71437,-0.42333 0.21167,0 0.39688,0.0529 0.55563,0.21166 0.15875,0.15875 0.26458,0.3175 0.34396,0.52917 v 2.01083 c -0.0794,0.18521 -0.18521,0.37042 -0.37042,0.50271 -0.15875,0.13229 -0.34396,0.18521 -0.55563,0.18521 -0.29104,0.0265 -0.55562,-0.13229 -0.71437,-0.37042 -0.15875,-0.29104 -0.26458,-0.635 -0.23813,-0.97896 z m 3.67771,-1.82562 H 114.901 v 4.04812 h 0.44979 z m 0,-1.79917 H 114.901 v 0.635 h 0.44979 z m 1.11125,0.76729 v 1.03188 h -0.55562 v 0.39687 h 0.55562 v 2.61938 c -0.0265,0.29104 0.0529,0.60854 0.21167,0.84666 0.13229,0.18521 0.34396,0.26459 0.55562,0.26459 0.10584,0 0.18521,0 0.29105,-0.0265 0.0794,-0.0265 0.15875,-0.0265 0.23812,-0.0794 l -0.0529,-0.34396 c -0.0794,0 -0.13229,0.0265 -0.18521,0.0265 -0.0529,0 -0.10583,0 -0.1852,0 -0.1323,0 -0.23813,-0.0529 -0.29105,-0.15875 -0.0794,-0.15875 -0.13229,-0.37041 -0.10583,-0.55562 v -2.61938 h 0.71438 v -0.39687 h -0.71438 v -1.03188 z m 4.41854,5.08 c -0.0265,-0.13229 -0.0529,-0.26458 -0.0529,-0.39687 0,-0.1323 -0.0265,-0.26459 -0.0265,-0.42334 v -1.98437 c 0.0265,-0.37042 -0.10583,-0.71438 -0.34395,-0.97896 -0.23813,-0.23813 -0.58209,-0.34396 -0.89959,-0.34396 -0.34396,0 -0.68791,0.10583 -0.92604,0.37042 -0.23812,0.21166 -0.34396,0.50271 -0.34396,0.82021 v 0.0264 h 0.42334 c 0,-0.21166 0.0794,-0.42333 0.23812,-0.55562 0.15875,-0.15875 0.37042,-0.23813 0.58208,-0.23813 0.23813,-0.0264 0.4498,0.0794 0.60855,0.23813 0.15875,0.18521 0.23812,0.42333 0.21166,0.66146 v 0.50271 h -0.71437 c -0.39688,-0.0265 -0.76729,0.10583 -1.08479,0.34395 -0.26459,0.21167 -0.42334,0.55563 -0.39688,0.89959 -0.0265,0.29104 0.0794,0.60854 0.26458,0.84666 0.18521,0.21167 0.47625,0.3175 0.7673,0.3175 0.23812,0 0.44979,-0.0794 0.66145,-0.1852 0.18521,-0.1323 0.34396,-0.29105 0.47625,-0.50271 0,0.0794 0,0.18521 0.0265,0.26458 0,0.0794 0.0265,0.21167 0.0529,0.34396 z m -2.0902,-0.52917 c -0.1323,-0.15875 -0.18521,-0.34395 -0.15875,-0.52916 0,-0.23813 0.0794,-0.47625 0.26458,-0.635 0.21167,-0.18521 0.47625,-0.26459 0.74083,-0.26459 h 0.71438 v 0.87313 c -0.0794,0.21167 -0.21167,0.42333 -0.39688,0.55562 -0.18521,0.1323 -0.42333,0.21167 -0.66146,0.21167 -0.21166,0 -0.39687,-0.0794 -0.5027,-0.21167 z m 3.3602,-5.31812 h -0.44979 v 5.84729 h 0.44979 z m 2.88396,0 h -0.44979 v 5.84729 h 0.44979 z m 1.40229,1.79917 h -0.44979 v 4.04812 h 0.44979 z m 0,-1.79917 h -0.44979 v 0.635 h 0.44979 z m 1.64042,5.84729 v -3.67771 h 0.76729 v -0.39687 h -0.76729 v -0.58209 c -0.0265,-0.23812 0.0265,-0.44979 0.15875,-0.66145 0.10583,-0.15875 0.26458,-0.23813 0.44979,-0.23813 0.0529,0 0.10584,0 0.15875,0 0.0529,0 0.10584,0.0265 0.15875,0.0265 l 0.0529,-0.37042 c -0.0794,-0.0265 -0.13229,-0.0265 -0.21166,-0.0529 -0.0794,0 -0.13229,-0.0265 -0.21167,-0.0265 -0.29104,-0.0265 -0.55562,0.10583 -0.74083,0.34396 -0.18521,0.26458 -0.29104,0.60854 -0.26459,0.9525 v 0.58208 h -0.55563 v 0.39687 h 0.55563 v 3.67771 z m 3.22792,-0.0794 c 0.18521,-0.0794 0.34396,-0.21167 0.47625,-0.37042 l -0.18521,-0.3175 c -0.10583,0.13229 -0.26458,0.26458 -0.42333,0.3175 -0.18521,0.0794 -0.37042,0.13229 -0.58209,0.13229 -0.29104,0 -0.58208,-0.13229 -0.76729,-0.39687 -0.18521,-0.29105 -0.29104,-0.635 -0.29104,-0.97896 v -0.34396 h 2.32833 v -0.44979 c 0.0265,-0.42334 -0.10583,-0.87313 -0.34396,-1.21709 -0.23812,-0.29104 -0.60854,-0.47625 -0.97895,-0.44979 -0.39688,0 -0.7673,0.18521 -1.00542,0.50271 -0.29104,0.37042 -0.42333,0.82021 -0.42333,1.27 v 0.66146 c -0.0265,0.44979 0.13229,0.89958 0.42333,1.24354 0.26458,0.3175 0.66146,0.50271 1.05833,0.50271 0.23813,0.0529 0.47625,0 0.71438,-0.10583 z m -0.10584,-3.33375 c 0.15875,0.23812 0.23813,0.52916 0.23813,0.8202 v 0.15875 h -1.87854 c 0,-0.34395 0.10583,-0.66145 0.29104,-0.9525 0.15875,-0.23812 0.42333,-0.39687 0.68792,-0.39687 0.26458,0.0529 0.52916,0.15875 0.66145,0.37042 z"
       id="path6"
       style="fill:#1d1d1b;stroke-width:0.264583" />
    <path
       class="st0"
       d="m 89.051208,141.3179 v -2.67229 h -3.915834 v 2.67229 z m -0.07937,1.11125 h -3.783542 v 11.08604 h 3.783542 z m 12.832292,0 h -3.704167 v 11.08604 h 3.783537 v -7.91104 h 1.4023 1.27 v -3.175 h -0.34396 z m 4.36562,0.71437 c -0.5027,0.47625 -0.74083,1.16417 -0.74083,2.03729 v 5.58271 c 0,0.87313 0.23813,1.56105 0.74083,2.0373 0.50271,0.47625 1.29646,0.71437 2.43417,0.71437 h 2.80458 c 1.11125,0 1.93146,-0.23812 2.43417,-0.71437 0.50271,-0.47625 0.74083,-1.16417 0.74083,-2.0373 v -5.58271 c 0,-0.89958 -0.23812,-1.56104 -0.74083,-2.03729 -0.50271,-0.47625 -1.29646,-0.71437 -2.43417,-0.71437 h -2.83104 c -1.11125,0 -1.93146,0.23812 -2.40771,0.71437 z m 4.1275,7.7523 h -0.60854 c -0.37041,0 -0.55562,-0.15875 -0.55562,-0.50271 v -4.86834 c 0,-0.3175 0.18521,-0.50271 0.55562,-0.50271 h 0.60854 c 0.37042,0 0.55563,0.15875 0.55563,0.50271 v 4.8948 c 0,0.3175 -0.18521,0.5027 -0.55563,0.47625 z"
       id="path8"
       style="fill:#1d1d1b;stroke-width:0.264583" />
    <polygon
       class="st0"
       points="152.4,269.7 152.4,213.5 138.8,213.5 138.8,243.5 126.6,213.5 113.8,213.5 113.8,269.7 127.4,269.7 127.4,240.2 139.6,269.7 "
       id="polygon10"
       style="fill:#1d1d1b"
       transform="matrix(0.26458333,0,0,0.26458333,43.146,82.157066)" />
    <path
       class="st0"
       d="m 138.84579,159.36248 h 3.43959 l 4.78895,-16.93333 h -3.81 l -1.19062,6.77333 -1.50813,-6.77333 h -3.81 l 3.51896,11.48292"
       id="path12"
       style="fill:#1d1d1b;stroke-width:0.264583" />
    <path
       class="st0"
       d="m 127.01892,145.18081 v 5.58271 c 0,1.85209 1.08479,2.75167 3.28083,2.75167 h 2.69875 c 2.16958,0 3.28083,-0.92604 3.28083,-2.75167 v -1.00541 h -3.57187 v 0.635 c 0,0.37041 0,0.52916 0,0.52916 h -1.53458 c -0.37042,0 -0.55563,-0.15875 -0.55563,-0.5027 v -1.45521 h 5.66208 v -3.78355 c 0,-1.82562 -1.08479,-2.75166 -3.28083,-2.75166 h -2.72521 c -2.16958,0 -3.25437,0.92604 -3.25437,2.75166 z m 3.57187,0.34396 c 0,-0.3175 0.18521,-0.50271 0.55563,-0.50271 h 0.97896 c 0.37041,0 0.55562,0.15875 0.55562,0.50271 v 1.40229 h -2.09021 z"
       id="path14"
       style="fill:#1d1d1b;stroke-width:0.264583" />
    <path
       class="st0"
       d="m 96.433083,142.45561 h -1.402292 v -3.75709 h -3.783542 v 3.75709 h -1.217083 v 2.77812 h 1.217083 v 8.30792 h 5.159375 v -2.77813 h -1.375833 v -5.52979 h 1.402292 z"
       id="path16"
       style="fill:#1d1d1b;stroke-width:0.264583" />
    <polygon
       class="st0"
       points="276.2,269.7 290.5,269.7 290.5,250.2 298.3,269.7 313.2,269.7 304.2,248.5 313.2,227.8 298.4,227.8 290.5,246.9 290.5,213.5 276.2,213.5 "
       id="polygon18"
       style="fill:#1d1d1b"
       transform="matrix(0.26458333,0,0,0.26458333,43.146,82.157066)" />
    <path
       class="st1"
       d="m 58.54475,151.10748 -6.111875,3.51896 c -0.423333,0.23813 -0.9525,0.10583 -1.190625,-0.3175 l -3.254375,-5.66208 c -0.238125,-0.42334 -0.105833,-0.9525 0.3175,-1.19063 l 6.111875,-3.51896 z"
       id="path20"
       style="fill:#c80636;stroke-width:0.264583" />
    <path
       class="st1"
       d="m 55.36975,144.57227 3.095625,5.34459 6.111875,-3.54542 -3.095625,-5.34458 z m 3.069167,-0.66146 c -0.05292,-0.10583 -0.02646,-0.23812 0.07937,-0.29104 l 0.608541,-0.37041 c 0.105834,-0.0529 0.238125,-0.0265 0.291042,0.0794 l 0.502708,0.87312 c 0.05292,0.10583 0.02646,0.23813 -0.07937,0.29104 l -0.608541,0.34396 c -0.105834,0.0529 -0.211667,0.0265 -0.291042,-0.0794 0,0 0,0 0,0 z m 3.01625,3.38667 -0.608542,0.34396 c -0.105833,0.0529 -0.238125,0.0265 -0.291042,-0.0794 l -0.502708,-0.87313 c -0.05292,-0.10583 -0.02646,-0.21167 0.07937,-0.29104 0,0 0,0 0,0 l 0.608542,-0.34396 c 0.105833,-0.0529 0.211666,-0.0265 0.291041,0.0794 0,0 0,0 0,0 l 0.502709,0.87312 c 0.05292,0.1323 0.02646,0.26459 -0.07938,0.29105 z"
       id="path22"
       style="fill:#c80636;stroke-width:0.264583" />
    <path
       class="st1"
       d="m 56.269333,162.77561 c -0.3175,0 -0.661458,-0.0529 -0.9525,-0.18521 C 47.2735,159.38894 43.93975,151.87477 43.331208,150.39311 43.198917,150.07561 43.146,149.73165 43.146,149.38769 v -9.26042 c 0,-1.05833 0.608542,-2.01083 1.5875,-2.43416 l 10.530417,-4.47146 c 0.635,-0.26459 1.349375,-0.26459 1.984375,0 l 10.530416,4.445 c 0.978958,0.42333 1.5875,1.37583 1.5875,2.43416 v 9.26042 c 0,0.34396 -0.07937,0.68792 -0.185208,1.00542 -0.582084,1.48167 -3.942292,8.99583 -11.985625,12.22375 -0.291042,0.13229 -0.635,0.18521 -0.926042,0.18521 z m 0,-27.41084 c -0.02646,0 -0.05292,0 -0.07937,0.0265 l -10.530416,4.445 c -0.105833,0.0529 -0.185209,0.15875 -0.15875,0.29105 v 9.26041 c 0,0.0529 0,0.0794 0.02646,0.13229 0.529166,1.32292 3.518958,8.04334 10.689166,10.92729 0.05292,0.0265 0.105834,0.0265 0.15875,0 7.14375,-2.88395 10.133542,-9.60437 10.63625,-10.92729 0.02646,-0.0529 0.02646,-0.0794 0.02646,-0.13229 v -9.26041 c 0,-0.1323 -0.05292,-0.23813 -0.15875,-0.29105 l -10.530417,-4.445 c -0.02646,0 -0.05292,-0.0265 -0.07938,-0.0265 z"
       id="path24"
       style="fill:#c80636;stroke-width:0.264583" />
    <path
       class="st1"
       d="m 153.001,159.38894 h 2.88395 l -4.12749,-14.68438 h -2.98979 l -4.1275,14.68438 h 2.88396 l 0.79375,-3.12208 h 3.86291 z m -2.75167,-10.63625 h 0.0529 l 1.32292,5.18583 h -2.69875 z m 15.16062,4.65667 c 0,-1.53459 -0.3175,-2.77813 -0.9525,-3.73063 -0.58208,-0.92604 -1.5875,-1.45521 -2.67229,-1.42875 -0.44979,0 -0.87312,0.10583 -1.24354,0.34396 -0.37042,0.23813 -0.68792,0.55563 -0.92604,0.9525 l -0.10583,-1.08479 h -2.64584 v 15.10771 h 2.8575 v -5.05354 c 0.23813,0.34395 0.55563,0.60854 0.89959,0.79375 0.37041,0.1852 0.76729,0.26458 1.19062,0.26458 1.05833,0.0529 2.03729,-0.44979 2.64583,-1.32292 0.635,-0.87312 0.9525,-2.03729 0.9525,-3.4925 z m -2.8575,1.34937 c 0.0265,0.635 -0.0794,1.27 -0.34395,1.87854 -0.21167,0.4498 -0.66146,0.71438 -1.13771,0.68792 -0.26459,0 -0.55563,-0.0529 -0.79375,-0.18521 -0.21167,-0.13229 -0.39688,-0.3175 -0.52917,-0.55562 v -5.15938 c 0.10583,-0.26458 0.29104,-0.47625 0.52917,-0.635 0.23812,-0.15875 0.50271,-0.23812 0.79375,-0.23812 0.50271,0 0.97896,0.3175 1.13771,0.79375 0.26458,0.66146 0.39687,1.37583 0.37041,2.06375 z m 12.88521,-1.34937 c 0,-1.53459 -0.3175,-2.77813 -0.9525,-3.73063 -0.58208,-0.92604 -1.5875,-1.45521 -2.67229,-1.42875 -0.44979,0 -0.87312,0.10583 -1.24354,0.34396 -0.37042,0.23813 -0.68792,0.55563 -0.92604,0.9525 l -0.10584,-1.08479 h -2.64583 v 15.10771 h 2.8575 v -5.05354 c 0.23813,0.34395 0.55563,0.60854 0.89958,0.79375 0.37042,0.1852 0.7673,0.26458 1.19063,0.26458 1.05833,0.0529 2.03729,-0.44979 2.64583,-1.32292 0.635,-0.87312 0.9525,-2.03729 0.9525,-3.4925 z m -2.8575,1.34937 c 0.0265,0.635 -0.0794,1.27 -0.34396,1.87854 -0.21166,0.4498 -0.66145,0.71438 -1.1377,0.68792 -0.26459,0 -0.55563,-0.0529 -0.79375,-0.18521 -0.21167,-0.13229 -0.39688,-0.3175 -0.52917,-0.55562 v -5.15938 c 0.10583,-0.26458 0.29104,-0.47625 0.52917,-0.635 0.23812,-0.15875 0.5027,-0.23812 0.79375,-0.23812 0.5027,0 0.97895,0.3175 1.1377,0.79375 0.26459,0.66146 0.39688,1.37583 0.37042,2.06375 z"
       id="path26"
       style="fill:#c80636;stroke-width:0.264583" />
  </g>
</svg>
