<svg xmlns="http://www.w3.org/2000/svg" height="40" viewBox="0 -960 960 960" width="40"><path d="M229.058-643.413h371.471v-84.811q0-50.663-35.011-85.893-35.011-35.231-85.402-35.231t-85.518 35.231q-35.127 35.23-35.127 85.856h-75.753q0-81.982 57.329-139.491 57.329-57.509 138.985-57.509t138.953 57.559q57.297 57.559 57.297 139.441v84.848h54.66q31.314 0 53.614 22.299 22.299 22.3 22.299 53.614v417.884q0 31.249-22.299 53.501-22.3 22.253-53.614 22.253H229.058q-31.249 0-53.501-22.253-22.253-22.252-22.253-53.501V-567.5q0-31.314 22.253-53.614 22.252-22.299 53.501-22.299Zm0 493.797h501.884V-567.5H229.058v417.884Zm251.054-130.942q32.221 0 55.055-22.521Q558-325.6 558-357.225q0-30.999-22.945-55.166-22.946-24.167-55.167-24.167-32.221 0-55.055 24.167Q402-388.224 402-356.891t22.945 53.833q22.946 22.5 55.167 22.5ZM229.058-149.616V-567.5v417.884Z"/></svg>