<?xml version="1.0" encoding="UTF-8"?>
<!DOCTYPE svg PUBLIC "-//W3C//DTD SVG 1.1//EN" "http://www.w3.org/Graphics/SVG/1.1/DTD/svg11.dtd">
<svg xmlns="http://www.w3.org/2000/svg" version="1.1" width="3201px" height="3201px" style="shape-rendering:geometricPrecision; text-rendering:geometricPrecision; image-rendering:optimizeQuality; fill-rule:evenodd; clip-rule:evenodd" xmlns:xlink="http://www.w3.org/1999/xlink">
<g><path style="opacity:0.995" fill="#000000" d="M 1642.5,16.5 C 1834,207.172 2025,398.338 2215.5,590C 2025.54,780.961 1835.21,971.627 1644.5,1162C 1643.5,1162.67 1642.5,1162.67 1641.5,1162C 1570.32,1089.65 1499.32,1017.15 1428.5,944.5C 1494.99,877.514 1561.65,810.68 1628.5,744C 1336.47,737.188 1084.8,833.188 873.5,1032C 804.313,1097.4 744.313,1169.9 693.5,1249.5C 633.503,1250.33 573.503,1250.83 513.5,1251C 451.607,1253.58 391.607,1265.25 333.5,1286C 466.905,974.935 683.572,741.269 983.5,585C 1187.25,481.312 1403.58,431.646 1632.5,436C 1564.01,369.348 1496.01,302.182 1428.5,234.5C 1499.49,161.508 1570.83,88.8409 1642.5,16.5 Z"/></g>
<g><path style="opacity:0.992" fill="#000000" d="M 2584.5,848.5 C 2711.17,976.442 2808.67,1124.11 2877,1291.5C 2835.66,1279.75 2793.49,1272.58 2750.5,1270C 2674.18,1268.72 2597.85,1268.06 2521.5,1268C 2478.2,1195.64 2427.04,1129.14 2368,1068.5C 2367.33,1067.5 2367.33,1066.5 2368,1065.5C 2440.37,993.299 2512.53,920.965 2584.5,848.5 Z"/></g>
<g><path style="opacity:0.996" fill="#000000" d="M 574.5,1369.5 C 645.95,1366.35 715.95,1374.85 784.5,1395C 905.731,1435.58 998.898,1510.75 1064,1620.5C 1106.15,1696.31 1128.82,1777.64 1132,1864.5C 1132.67,1960.83 1132.67,2057.17 1132,2153.5C 1126.06,2308.19 1064.89,2435.69 948.5,2536C 878.883,2592.12 799.549,2627.12 710.5,2641C 615.986,2655.6 522.652,2650.26 430.5,2625C 292.653,2580.81 191.486,2493.98 127,2364.5C 96.8333,2299.17 80.1666,2230.5 77,2158.5C 75,2058.83 75,1959.17 77,1859.5C 85.8996,1692.83 156.733,1560 289.5,1461C 353.818,1416.7 424.818,1388.7 502.5,1377C 526.544,1373.44 550.544,1370.94 574.5,1369.5 Z M 584.5,1592.5 C 690.93,1586.44 766.43,1631.44 811,1727.5C 832.869,1777.84 843.869,1830.51 844,1885.5C 844.935,1975.51 844.602,2065.51 843,2155.5C 840.319,2211.9 825.652,2264.9 799,2314.5C 756.755,2388.73 692.588,2426.06 606.5,2426.5C 519.106,2426.74 453.606,2389.41 410,2314.5C 381.095,2260.55 366.095,2202.88 365,2141.5C 364.048,2046.49 364.381,1951.49 366,1856.5C 369.32,1795.52 386.987,1739.19 419,1687.5C 458.387,1628.87 513.554,1597.21 584.5,1592.5 Z"/></g>
<g><path style="opacity:0.995" fill="#000000" d="M 1157.5,1387.5 C 1471.17,1387.5 1784.83,1387.5 2098.5,1387.5C 2098.5,1461.83 2098.5,1536.17 2098.5,1610.5C 1989.17,1610.5 1879.83,1610.5 1770.5,1610.5C 1770.5,1950.83 1770.5,2291.17 1770.5,2631.5C 1673.83,2631.5 1577.17,2631.5 1480.5,2631.5C 1480.5,2291.17 1480.5,1950.83 1480.5,1610.5C 1372.83,1610.5 1265.17,1610.5 1157.5,1610.5C 1157.5,1536.17 1157.5,1461.83 1157.5,1387.5 Z"/></g>
<g><path style="opacity:0.997" fill="#000000" d="M 2162.5,1387.5 C 2332.17,1387.33 2501.83,1387.5 2671.5,1388C 2736.46,1389.86 2799.46,1401.86 2860.5,1424C 2950.68,1457.86 3020.52,1516.03 3070,1598.5C 3103.11,1660.28 3119.28,1726.28 3118.5,1796.5C 3115.85,1962.4 3040.51,2081.9 2892.5,2155C 2825.03,2184.87 2754.36,2201.2 2680.5,2204C 2604.18,2205.4 2527.84,2205.9 2451.5,2205.5C 2451.5,2347.17 2451.5,2488.83 2451.5,2630.5C 2355.17,2630.5 2258.83,2630.5 2162.5,2630.5C 2162.5,2216.17 2162.5,1801.83 2162.5,1387.5 Z M 2451.5,1610.5 C 2520.83,1610.33 2590.17,1610.5 2659.5,1611C 2745.03,1616.56 2799.53,1660.39 2823,1742.5C 2833.53,1787.22 2831.2,1831.22 2816,1874.5C 2786.95,1940.65 2736.12,1976.15 2663.5,1981C 2592.85,1982.45 2522.18,1982.95 2451.5,1982.5C 2451.5,1858.5 2451.5,1734.5 2451.5,1610.5 Z"/></g>
<g><path style="opacity:0.995" fill="#000000" d="M 2895.5,2295.5 C 2874.08,2356.38 2847.58,2415.38 2816,2472.5C 2733.56,2618.34 2628.73,2746.51 2501.5,2857C 2258.14,3067.4 1974.47,3176.73 1650.5,3185C 1385.88,3193.93 1139.54,3131.59 911.5,2998C 803.64,2935 705.973,2858.5 618.5,2768.5C 646.494,2767.67 674.494,2767.17 702.5,2767C 789.488,2763.59 870.822,2740.59 946.5,2698C 957.256,2691.54 967.756,2684.71 978,2677.5C 1133.48,2792.91 1308.32,2858.74 1502.5,2875C 1678.19,2890.28 1847.85,2865.28 2011.5,2800C 2046.29,2785.27 2080.29,2768.94 2113.5,2751C 2245.83,2750.67 2378.17,2750.33 2510.5,2750C 2530.33,2730.17 2550.17,2710.33 2570,2690.5C 2570.5,2568.5 2570.67,2446.5 2570.5,2324.5C 2617.83,2324.67 2665.17,2324.5 2712.5,2324C 2775.08,2323.66 2836.08,2314.16 2895.5,2295.5 Z"/></g>
</svg>
