<svg xmlns="http://www.w3.org/2000/svg" fill="none" viewBox="0 0 24 24" id="Passkey--Streamline-Outlined-Material" height="24" width="24">
  <desc>
    Passkey Streamline Icon: https://streamlinehq.com
  </desc>
  <path fill="#000000" d="M3 20v-2.35c0 -0.63335 0.158335 -1.175 0.475 -1.625 0.316665 -0.45 0.725 -0.79165 1.225 -1.025 1.11665 -0.5 2.1875 -0.875 3.2125 -1.125S9.96665 13.5 11 13.5c0.43335 0 0.85415 0.02085 1.2625 0.0625s0.82915 0.10415 1.2625 0.1875c-0.08335 0.96665 0.09585 1.87915 0.5375 2.7375C14.50415 17.34585 15.15 18.01665 16 18.5v1.5H3Zm16 3.675 -1.5 -1.5v-4.65c-0.73335 -0.21665 -1.33335 -0.62915 -1.8 -1.2375 -0.46665 -0.60835 -0.7 -1.3125 -0.7 -2.1125 0 -0.96665 0.34165 -1.79165 1.025 -2.475 0.68335 -0.68335 1.50835 -1.025 2.475 -1.025s1.79165 0.34165 2.475 1.025c0.68335 0.68335 1.025 1.50835 1.025 2.475 0 0.75 -0.2125 1.41665 -0.6375 2 -0.425 0.58335 -0.9625 1 -1.6125 1.25l1.25 1.25 -1.5 1.5 1.5 1.5 -2 2ZM11 11.5c-1.05 0 -1.9375 -0.3625 -2.6625 -1.0875 -0.725 -0.725 -1.0875 -1.6125 -1.0875 -2.6625s0.3625 -1.9375 1.0875 -2.6625C9.0625 4.3625 9.95 4 11 4s1.9375 0.3625 2.6625 1.0875c0.725 0.725 1.0875 1.6125 1.0875 2.6625s-0.3625 1.9375 -1.0875 2.6625C12.9375 11.1375 12.05 11.5 11 11.5Zm7.5 3.175c0.28335 0 0.52085 -0.09585 0.7125 -0.2875S19.5 13.95835 19.5 13.675c0 -0.28335 -0.09585 -0.52085 -0.2875 -0.7125s-0.42915 -0.2875 -0.7125 -0.2875c-0.28335 0 -0.52085 0.09585 -0.7125 0.2875S17.5 13.39165 17.5 13.675c0 0.28335 0.09585 0.52085 0.2875 0.7125s0.42915 0.2875 0.7125 0.2875Z" stroke-width="0.5"></path>
</svg>