<?xml version="1.0" encoding="UTF-8"?>
<!DOCTYPE svg PUBLIC "-//W3C//DTD SVG 1.1//EN" "http://www.w3.org/Graphics/SVG/1.1/DTD/svg11.dtd">
<svg xmlns="http://www.w3.org/2000/svg" version="1.1" width="24px" height="24px" style="shape-rendering:geometricPrecision; text-rendering:geometricPrecision; image-rendering:optimizeQuality; fill-rule:evenodd; clip-rule:evenodd" xmlns:xlink="http://www.w3.org/1999/xlink">
<g><path style="opacity:0.947" fill="#000000" d="M 2.5,2.5 C 7.51108,2.33407 12.5111,2.50074 17.5,3C 18.3333,3.83333 19.1667,4.66667 20,5.5C 20.4993,10.4889 20.6659,15.4889 20.5,20.5C 14.5,20.5 8.5,20.5 2.5,20.5C 2.5,14.5 2.5,8.5 2.5,2.5 Z M 4.5,4.5 C 16.1667,2.16667 20.8333,6.83333 18.5,18.5C 13.8333,18.5 9.16667,18.5 4.5,18.5C 4.5,13.8333 4.5,9.16667 4.5,4.5 Z"/></g>
<g><path style="opacity:1" fill="#000000" d="M 5.5,5.5 C 8.5,5.5 11.5,5.5 14.5,5.5C 14.5,6.83333 14.5,8.16667 14.5,9.5C 11.5,9.5 8.5,9.5 5.5,9.5C 5.5,8.16667 5.5,6.83333 5.5,5.5 Z"/></g>
<g><path style="opacity:0.773" fill="#000000" d="M 9.5,11.5 C 13.9083,11.062 15.5749,13.062 14.5,17.5C 9.07377,18.4161 7.4071,16.4161 9.5,11.5 Z"/></g>
</svg>
