<?xml version="1.0" encoding="UTF-8"?>
<!DOCTYPE svg PUBLIC "-//W3C//DTD SVG 1.1//EN" "http://www.w3.org/Graphics/SVG/1.1/DTD/svg11.dtd">
<svg xmlns="http://www.w3.org/2000/svg" version="1.1" width="40px" height="40px" style="shape-rendering:geometricPrecision; text-rendering:geometricPrecision; image-rendering:optimizeQuality; fill-rule:evenodd; clip-rule:evenodd" xmlns:xlink="http://www.w3.org/1999/xlink">
<g><path style="opacity:0.767" fill="#000000" d="M 14.5,2.5 C 17.8333,2.5 21.1667,2.5 24.5,2.5C 24.5442,8.43876 27.0442,9.7721 32,6.5C 34.207,9.07793 36.0404,11.9113 37.5,15C 30.8333,18 30.8333,21 37.5,24C 36.0404,27.0887 34.207,29.9221 32,32.5C 27.0442,29.2279 24.5442,30.5612 24.5,36.5C 21.1667,36.5 17.8333,36.5 14.5,36.5C 14.4558,30.5612 11.9558,29.2279 7,32.5C 4.79297,29.9221 2.95964,27.0887 1.5,24C 8.16667,21 8.16667,18 1.5,15C 2.95964,11.9113 4.79297,9.07793 7,6.5C 11.9558,9.7721 14.4558,8.43876 14.5,2.5 Z M 18.5,6.5 C 20.4857,8.89329 22.819,11.06 25.5,13C 27.1626,13.2649 28.6626,12.7649 30,11.5C 30.6924,12.0253 31.1924,12.6919 31.5,13.5C 28.8054,16.2773 27.9721,19.6106 29,23.5C 29.9246,24.0465 30.7579,24.7132 31.5,25.5C 29.5269,26.3311 27.5269,26.4978 25.5,26C 22.7044,27.4186 20.7044,29.5853 19.5,32.5C 18.2956,29.5853 16.2956,27.4186 13.5,26C 11.8374,25.7351 10.3374,26.2351 9,27.5C 8.30762,26.9747 7.80762,26.3081 7.5,25.5C 9.3845,24.0165 10.3845,22.0165 10.5,19.5C 10.09,16.7605 9.2567,14.4272 8,12.5C 8.33333,12.1667 8.66667,11.8333 9,11.5C 11.9146,14.07 14.5813,13.7366 17,10.5C 17.7914,9.25501 18.2914,7.92167 18.5,6.5 Z M 17.5,17.5 C 18.8333,17.5 20.1667,17.5 21.5,17.5C 21.5,18.8333 21.5,20.1667 21.5,21.5C 20.1667,21.5 18.8333,21.5 17.5,21.5C 17.5,20.1667 17.5,18.8333 17.5,17.5 Z"/></g>
<g><path style="opacity:0.728" fill="#000000" d="M 16.5,13.5 C 25.8176,13.6546 27.8176,17.488 22.5,25C 13.0959,25.141 11.0959,21.3076 16.5,13.5 Z M 17.5,17.5 C 17.5,18.8333 17.5,20.1667 17.5,21.5C 18.8333,21.5 20.1667,21.5 21.5,21.5C 21.5,20.1667 21.5,18.8333 21.5,17.5C 20.1667,17.5 18.8333,17.5 17.5,17.5 Z"/></g>
</svg>
