<?xml version="1.0" encoding="UTF-8"?>
<!DOCTYPE svg PUBLIC "-//W3C//DTD SVG 1.1//EN" "http://www.w3.org/Graphics/SVG/1.1/DTD/svg11.dtd">
<svg xmlns="http://www.w3.org/2000/svg" version="1.1" width="2000px" height="2000px" style="shape-rendering:geometricPrecision; text-rendering:geometricPrecision; image-rendering:optimizeQuality; fill-rule:evenodd; clip-rule:evenodd" xmlns:xlink="http://www.w3.org/1999/xlink">
<g><path style="opacity:0.991" fill="#000000" d="M 85.5,72.5 C 101.593,72.2529 115.926,77.0862 128.5,87C 197.667,156.167 266.833,225.333 336,294.5C 386.656,205.844 459.156,142.01 553.5,103C 636.673,73.4332 721.34,68.4332 807.5,88C 870.591,103.875 926.591,132.875 975.5,175C 1096.84,283.998 1142.67,419.164 1113,580.5C 1103.66,623.864 1087.66,664.531 1065,702.5C 1017.33,674.833 969.667,647.167 922,619.5C 921.333,618.5 921.333,617.5 922,616.5C 956.022,553.908 963.355,488.242 944,419.5C 923.974,358.81 886.808,311.643 832.5,278C 772.963,244.849 709.963,235.849 643.5,251C 589.669,264.995 545.169,293.495 510,336.5C 489.215,362.23 474.048,391.064 464.5,423C 516.667,475.167 568.833,527.333 621,579.5C 621.333,546.167 621.667,512.833 622,479.5C 628.537,444.296 649.037,421.796 683.5,412C 729.787,403.562 763.62,420.062 785,461.5C 787.294,468.01 788.961,474.677 790,481.5C 790.333,567.833 790.667,654.167 791,740.5C 847.167,796.667 903.333,852.833 959.5,909C 1115.17,909.333 1270.83,909.667 1426.5,910C 1507.33,915.322 1571.5,950.489 1619,1015.5C 1643.37,1049.6 1657.7,1087.6 1662,1129.5C 1663.65,1258.15 1663.98,1386.82 1663,1515.5C 1661.4,1543.08 1656.57,1570.08 1648.5,1596.5C 1701.76,1651.26 1755.6,1705.6 1810,1759.5C 1825.86,1781.1 1828.19,1804.1 1817,1828.5C 1794.57,1862.75 1764.74,1871.25 1727.5,1854C 1725.17,1852.33 1722.83,1850.67 1720.5,1849C 1674.67,1803.17 1628.83,1757.33 1583,1711.5C 1545.56,1754.27 1500.39,1786.11 1447.5,1807C 1414.24,1819.15 1379.91,1825.82 1344.5,1827C 1181.83,1827.67 1019.17,1827.67 856.5,1827C 790.098,1822.87 733.931,1797.04 688,1749.5C 531.38,1551.09 374.88,1352.59 218.5,1154C 236.167,1135.67 253.833,1117.33 271.5,1099C 325.251,1056.1 384.251,1047.1 448.5,1072C 506.227,1105.9 563.56,1140.4 620.5,1175.5C 621.667,1036.5 621.833,897.501 621,758.5C 575.333,712.833 529.667,667.167 484,621.5C 437.582,648.626 391.082,675.626 344.5,702.5C 303.735,632.773 284.902,557.44 288,476.5C 288.943,460.469 289.943,444.469 291,428.5C 207,344.5 123,260.5 39,176.5C 21.7522,152.69 20.4188,128.023 35,102.5C 47.4262,84.8778 64.2595,74.8778 85.5,72.5 Z M 593.5,1356.5 C 659.195,1396.44 724.695,1436.77 790,1477.5C 790.333,1294.5 790.667,1111.5 791,928.5C 904.833,1042.33 1018.67,1156.17 1132.5,1270C 1138.56,1274.7 1145.22,1278.36 1152.5,1281C 1256.17,1384.67 1359.83,1488.33 1463.5,1592C 1434.03,1631.41 1394.7,1653.74 1345.5,1659C 1183.5,1659.67 1021.5,1659.67 859.5,1659C 837.758,1655.21 819.592,1645.05 805,1628.5C 734.261,1537.94 663.761,1447.27 593.5,1356.5 Z M 1128.5,1078.5 C 1227,1077.33 1325.67,1077.17 1424.5,1078C 1455.01,1083 1476.84,1099.5 1490,1127.5C 1492.14,1133.71 1493.8,1140.04 1495,1146.5C 1496.63,1246.15 1496.97,1345.82 1496,1445.5C 1373.63,1322.97 1251.13,1200.63 1128.5,1078.5 Z"/></g>
</svg>
