<?xml version="1.0" encoding="UTF-8"?>
<!DOCTYPE svg PUBLIC "-//W3C//DTD SVG 1.1//EN" "http://www.w3.org/Graphics/SVG/1.1/DTD/svg11.dtd">
<svg xmlns="http://www.w3.org/2000/svg" version="1.1" width="40px" height="40px" style="shape-rendering:geometricPrecision; text-rendering:geometricPrecision; image-rendering:optimizeQuality; fill-rule:evenodd; clip-rule:evenodd" xmlns:xlink="http://www.w3.org/1999/xlink">
<g><path style="opacity:0.737" fill="#000000" d="M 10.5,0.5 C 19.0456,0.0451079 22.7122,4.04511 21.5,12.5C 20.448,12.6495 19.448,12.4828 18.5,12C 17.8875,9.85264 17.2208,7.68597 16.5,5.5C 11.0624,3.77339 9.06235,5.60672 10.5,11C 9.06919,11.4652 7.90252,12.2986 7,13.5C 4.3434,8.08378 5.51007,3.75044 10.5,0.5 Z"/></g>
<g><path style="opacity:0.771" fill="#000000" d="M 12.5,6.5 C 13.4959,6.41423 14.3292,6.74756 15,7.5C 15.1667,11 15.3333,14.5 15.5,18C 15.4251,22.0225 14.7584,25.8559 13.5,29.5C 13.9767,30.4776 14.6433,31.3109 15.5,32C 19.8333,32.6667 24.1667,32.6667 28.5,32C 31.9877,22.3174 28.6544,18.8174 18.5,21.5C 18.5,20.1667 18.5,18.8333 18.5,17.5C 33.3221,15.4919 37.6555,21.3252 31.5,35C 25.9473,36.5699 20.2806,36.9032 14.5,36C 10.2348,31.9588 6.56814,27.4588 3.5,22.5C 5.45032,20.2472 7.78366,19.9139 10.5,21.5C 11.2144,16.4524 11.8811,11.4524 12.5,6.5 Z"/></g>
</svg>
