<?xml version="1.0" encoding="UTF-8" standalone="no"?>
<svg
   xmlns:dc="http://purl.org/dc/elements/1.1/"
   xmlns:cc="http://creativecommons.org/ns#"
   xmlns:rdf="http://www.w3.org/1999/02/22-rdf-syntax-ns#"
   xmlns:svg="http://www.w3.org/2000/svg"
   xmlns="http://www.w3.org/2000/svg"
   xmlns:sodipodi="http://sodipodi.sourceforge.net/DTD/sodipodi-0.dtd"
   xmlns:inkscape="http://www.inkscape.org/namespaces/inkscape"
   version="1.1"
   id="Ebene_1"
   x="0px"
   y="0px"
   viewBox="0 0 500 115.45"
   xml:space="preserve"
   sodipodi:docname="icon_Logo_App_small.svg"
   width="500"
   height="115.45"
   inkscape:version="1.0.2 (e86c870, 2021-01-15)"><metadata
   id="metadata127"><rdf:RDF><cc:Work
       rdf:about=""><dc:format>image/svg+xml</dc:format><dc:type
         rdf:resource="http://purl.org/dc/dcmitype/StillImage" /><dc:title>Zeichenfläche 10</dc:title></cc:Work></rdf:RDF></metadata><defs
   id="defs125" /><sodipodi:namedview
   pagecolor="#ffffff"
   bordercolor="#666666"
   borderopacity="1"
   objecttolerance="10"
   gridtolerance="10"
   guidetolerance="10"
   inkscape:pageopacity="0"
   inkscape:pageshadow="2"
   inkscape:window-width="1294"
   inkscape:window-height="704"
   id="namedview123"
   showgrid="false"
   inkscape:zoom="1.042"
   inkscape:cx="250"
   inkscape:cy="57.75"
   inkscape:window-x="72"
   inkscape:window-y="27"
   inkscape:window-maximized="1"
   inkscape:current-layer="Ebene_1" />
<style
   type="text/css"
   id="style96">
	.st0{fill:#1D1D1B;}
	.st1{fill:#C80636;}
</style>
<title
   id="title98">Zeichenfläche 10</title>
<path
   class="st0"
   d="m 120.4,105.55 c -0.6,0.5 -1.4,0.8 -2.2,0.7 -0.8,0 -1.6,-0.2 -2.3,-0.8 -0.7,-0.6 -1.1,-1.5 -1.1,-2.4 h -1.6 v 0.1 c -0.1,1.2 0.4,2.3 1.3,3.2 1,0.9 2.3,1.4 3.7,1.3 1.3,0.1 2.5,-0.3 3.5,-1.1 1.6,-1.5 1.7,-3.9 0.3,-5.6 0,0 -0.1,-0.1 -0.1,-0.1 -1,-0.9 -2.2,-1.5 -3.4,-2 -0.9,-0.4 -1.8,-0.9 -2.5,-1.5 -0.9,-1 -0.8,-2.4 0.2,-3.3 0.6,-0.5 1.4,-0.8 2.2,-0.7 0.8,0 1.7,0.3 2.2,0.9 0.5,0.6 0.8,1.4 0.8,2.2 h 1.6 v -0.1 c 0.1,-1.2 -0.4,-2.4 -1.2,-3.2 -0.9,-0.9 -2.2,-1.4 -3.4,-1.3 -1.2,-0.1 -2.4,0.4 -3.3,1.2 -0.8,0.7 -1.3,1.7 -1.3,2.8 0,1 0.4,1.9 1.1,2.6 1,0.9 2.2,1.5 3.4,2 0.9,0.4 1.8,0.9 2.5,1.6 0.5,0.5 0.7,1.1 0.7,1.8 -0.2,0.7 -0.5,1.3 -1.1,1.7 z m 12.7,1.7 c 0.7,-0.3 1.3,-0.8 1.8,-1.4 l -0.7,-1.2 c -0.4,0.5 -1,1 -1.6,1.2 -0.7,0.3 -1.4,0.5 -2.2,0.5 -1.1,0 -2.2,-0.5 -2.9,-1.5 -0.7,-1.1 -1.1,-2.4 -1.1,-3.7 v -1.3 h 8.7 v -1.7 c 0.1,-1.6 -0.4,-3.3 -1.3,-4.6 -0.9,-1.1 -2.3,-1.8 -3.7,-1.7 -1.5,0 -2.9,0.7 -3.8,1.9 -1.1,1.4 -1.6,3.1 -1.6,4.8 v 2.5 c -0.1,1.7 0.5,3.4 1.6,4.7 1,1.2 2.5,1.9 4,1.9 1.1,0.1 2,-0.1 2.8,-0.4 z m -0.4,-12.6 c 0.6,0.9 0.9,2 0.9,3.1 v 0.6 h -7.1 c 0,-1.3 0.4,-2.5 1.1,-3.6 0.6,-0.9 1.6,-1.5 2.6,-1.5 1,0.1 2,0.5 2.5,1.4 z m 7,10.2 c -0.6,-1.2 -1,-2.5 -0.9,-3.8 v -2.4 c 0,-1.3 0.3,-2.6 0.9,-3.8 0.6,-1 1.7,-1.6 2.9,-1.5 0.9,0 1.8,0.4 2.4,1.1 0.7,0.8 1,1.8 1,2.9 h 1.5 v -0.1 c 0.1,-1.4 -0.4,-2.8 -1.4,-3.9 -0.9,-1 -2.2,-1.5 -3.5,-1.5 -1.6,-0.1 -3.1,0.6 -4.1,1.9 -1,1.4 -1.5,3.1 -1.4,4.9 v 2.4 c -0.1,1.7 0.4,3.4 1.4,4.9 1.8,2.2 5,2.5 7.2,0.7 0.1,-0.1 0.2,-0.2 0.3,-0.3 1,-0.9 1.5,-2.2 1.4,-3.5 v -0.1 h -1.5 c 0.1,1 -0.3,2 -1,2.7 -0.6,0.6 -1.5,1 -2.3,1 -1.2,0 -2.3,-0.6 -2.9,-1.6 z m 18.6,2.6 h 1.5 v -15.3 h -1.7 v 11.1 c -0.2,0.8 -0.7,1.6 -1.3,2.2 -0.7,0.5 -1.5,0.8 -2.4,0.8 -0.9,0 -1.7,-0.4 -2.1,-1.2 -0.6,-1.2 -0.8,-2.6 -0.7,-4 v -8.9 h -1.7 v 8.9 c -0.1,1.8 0.3,3.5 1.1,5.1 0.7,1.1 1.9,1.7 3.2,1.6 0.8,0 1.7,-0.2 2.3,-0.7 0.7,-0.5 1.3,-1.2 1.6,-2 z m 10.9,-15.4 c -0.1,0 -0.3,-0.1 -0.4,-0.1 -0.2,0 -0.4,0 -0.5,0 -0.8,0 -1.5,0.3 -2.1,0.7 -0.6,0.6 -1.1,1.3 -1.4,2.1 l -0.2,-2.5 H 163 v 15.3 h 1.7 v -10.9 c 0.2,-0.8 0.6,-1.6 1.1,-2.2 0.5,-0.5 1.3,-0.8 2,-0.8 l 1.1,0.1 z m 9.1,15.2 c 0.7,-0.3 1.3,-0.8 1.7,-1.5 l -0.7,-1.2 c -0.4,0.5 -1,1 -1.6,1.2 -0.7,0.3 -1.4,0.5 -2.2,0.5 -1.1,0 -2.2,-0.5 -2.9,-1.5 -0.7,-1.1 -1.1,-2.4 -1.1,-3.7 v -1.3 h 8.8 v -1.7 c 0.1,-1.6 -0.4,-3.3 -1.3,-4.6 -0.9,-1.1 -2.3,-1.8 -3.7,-1.7 -1.5,0 -2.9,0.7 -3.8,1.9 -1.1,1.4 -1.6,3.1 -1.6,4.8 v 2.5 c -0.1,1.7 0.5,3.4 1.6,4.7 1,1.2 2.5,1.9 4,1.9 0.9,0.2 1.8,0 2.8,-0.3 z m -0.4,-12.6 c 0.6,0.9 0.9,2 0.9,3.1 v 0.6 h -7.1 c 0,-1.3 0.4,-2.5 1.1,-3.6 0.6,-0.9 1.6,-1.5 2.6,-1.5 1,0.1 1.9,0.5 2.5,1.4 z m 11,-2.5 H 187 l 4.8,15.1 -0.6,2 c -0.2,0.7 -0.5,1.4 -0.9,2 -0.3,0.5 -0.8,0.8 -1.4,0.8 h -0.5 l -0.5,-0.1 -0.2,1.5 c 0.2,0.1 0.4,0.1 0.6,0.1 0.2,0 0.4,0.1 0.6,0.1 0.9,0 1.8,-0.4 2.3,-1.1 0.6,-0.8 1,-1.7 1.3,-2.6 l 5.4,-17.8 H 196 l -3.7,12.6 h -0.1 l -0.4,-1.5 z m 10.1,8.8 c -0.1,1.8 0.5,3.5 1.5,4.9 1.9,2.3 5.3,2.5 7.6,0.6 0.2,-0.2 0.4,-0.4 0.6,-0.6 1.1,-1.4 1.6,-3.2 1.5,-4.9 v -2.2 c 0.1,-1.8 -0.5,-3.5 -1.5,-4.9 -1.9,-2.3 -5.3,-2.6 -7.5,-0.7 -0.2,0.2 -0.5,0.4 -0.7,0.7 -1.1,1.4 -1.6,3.1 -1.5,4.9 z m 1.7,-2.3 c -0.1,-1.3 0.3,-2.7 1,-3.8 1.1,-1.6 3.3,-2 4.9,-0.9 0.4,0.3 0.7,0.6 0.9,0.9 0.7,1.1 1.1,2.5 1,3.8 v 2.2 c 0.1,1.3 -0.3,2.7 -1,3.8 -1.1,1.6 -3.3,2 -4.9,0.9 -0.4,-0.2 -0.7,-0.6 -0.9,-0.9 -0.7,-1.1 -1.1,-2.5 -1,-3.8 z m 20.5,8.8 h 1.5 V 92.15 H 221 v 11.1 c -0.2,0.8 -0.7,1.6 -1.3,2.2 -0.7,0.5 -1.5,0.8 -2.4,0.8 -0.9,0 -1.7,-0.4 -2.1,-1.2 -0.6,-1.2 -0.8,-2.6 -0.7,-4 v -8.9 h -1.7 v 8.9 c -0.1,1.8 0.3,3.5 1.1,5.1 0.7,1.1 1.9,1.7 3.2,1.6 0.8,0 1.7,-0.2 2.4,-0.7 0.7,-0.5 1.3,-1.2 1.6,-2 z m 10.9,-15.4 c -0.1,0 -0.3,-0.1 -0.4,-0.1 -0.2,0 -0.4,0 -0.5,0 -0.8,0 -1.5,0.3 -2.1,0.7 -0.6,0.6 -1.1,1.3 -1.4,2.1 l -0.2,-2.5 H 226 v 15.3 h 1.7 v -10.9 c 0.2,-0.8 0.6,-1.6 1.1,-2.2 0.5,-0.5 1.3,-0.8 2,-0.8 l 1.1,0.1 z m 6.8,8.2 c -0.1,1.9 0.4,3.8 1.3,5.5 0.7,1.3 2.1,2 3.6,2 0.8,0 1.6,-0.2 2.2,-0.6 0.7,-0.4 1.2,-1 1.6,-1.7 l 0.1,2 h 1.5 v -22 h -1.7 v 8.8 c -0.4,-0.7 -0.9,-1.3 -1.6,-1.7 -0.7,-0.4 -1.4,-0.6 -2.2,-0.6 -1.5,0 -2.9,0.8 -3.6,2.2 -0.9,1.8 -1.4,3.8 -1.3,5.9 v 0.2 z m 1.7,-0.3 c -0.1,-1.6 0.2,-3.2 0.9,-4.7 0.4,-1.1 1.5,-1.8 2.7,-1.8 0.8,0 1.5,0.2 2.1,0.8 0.6,0.6 1,1.2 1.3,2 v 7.5 c -0.3,0.7 -0.7,1.4 -1.3,1.9 -0.6,0.5 -1.3,0.7 -2.1,0.7 -1.1,0 -2.2,-0.6 -2.6,-1.6 -0.6,-1.4 -0.9,-2.9 -0.9,-4.4 z m 13.8,-7.8 h -1.7 v 15.3 h 1.7 z m 0,-6.8 h -1.7 v 2.4 h 1.7 z m 2.9,15.8 c -0.1,1.7 0.4,3.4 1.3,4.8 1.4,1.8 3.8,2.3 5.8,1.2 0.7,-0.4 1.2,-0.9 1.6,-1.6 v 1.9 c 0.1,1.2 -0.2,2.4 -0.9,3.4 -0.6,0.8 -1.7,1.3 -2.7,1.2 -0.6,0 -1.2,-0.1 -1.8,-0.2 -0.5,-0.2 -1.1,-0.4 -1.5,-0.7 l -0.5,1.5 c 0.6,0.3 1.2,0.6 1.8,0.7 0.6,0.2 1.3,0.3 2,0.3 1.5,0.1 2.9,-0.5 3.9,-1.6 1,-1.3 1.5,-2.9 1.4,-4.5 v -15.3 h -1.4 l -0.2,2.1 c -0.4,-0.7 -0.9,-1.3 -1.6,-1.8 -0.7,-0.4 -1.5,-0.6 -2.2,-0.6 -1.5,0 -2.9,0.7 -3.6,2 -0.9,1.6 -1.4,3.4 -1.3,5.2 z m 1.7,-2.1 c -0.1,-1.4 0.2,-2.8 0.9,-4.1 0.5,-1 1.6,-1.6 2.7,-1.6 0.8,0 1.5,0.2 2.1,0.8 0.6,0.6 1,1.2 1.3,2 v 7.6 c -0.3,0.7 -0.7,1.4 -1.4,1.9 -0.6,0.5 -1.3,0.7 -2.1,0.7 -1.1,0.1 -2.1,-0.5 -2.7,-1.4 -0.6,-1.1 -1,-2.4 -0.9,-3.7 z m 13.9,-6.9 h -1.7 v 15.3 h 1.7 z m 0,-6.8 h -1.7 v 2.4 h 1.7 z m 4.2,2.9 v 3.9 H 275 v 1.5 h 2.1 v 9.9 c -0.1,1.1 0.2,2.3 0.8,3.2 0.5,0.7 1.3,1 2.1,1 0.4,0 0.7,0 1.1,-0.1 0.3,-0.1 0.6,-0.1 0.9,-0.3 l -0.2,-1.3 c -0.3,0 -0.5,0.1 -0.7,0.1 -0.2,0 -0.4,0 -0.7,0 -0.5,0 -0.9,-0.2 -1.1,-0.6 -0.3,-0.6 -0.5,-1.4 -0.4,-2.1 v -9.9 h 2.7 v -1.5 h -2.7 v -3.9 z m 16.7,19.2 c -0.1,-0.5 -0.2,-1 -0.2,-1.5 0,-0.5 -0.1,-1 -0.1,-1.6 v -7.5 c 0.1,-1.4 -0.4,-2.7 -1.3,-3.7 -0.9,-0.9 -2.2,-1.3 -3.4,-1.3 -1.3,0 -2.6,0.4 -3.5,1.4 -0.9,0.8 -1.3,1.9 -1.3,3.1 v 0.1 h 1.6 c 0,-0.8 0.3,-1.6 0.9,-2.1 0.6,-0.6 1.4,-0.9 2.2,-0.9 0.9,-0.1 1.7,0.3 2.3,0.9 0.6,0.7 0.9,1.6 0.8,2.5 v 1.9 h -2.7 c -1.5,-0.1 -2.9,0.4 -4.1,1.3 -1,0.8 -1.6,2.1 -1.5,3.4 -0.1,1.1 0.3,2.3 1,3.2 0.7,0.8 1.8,1.2 2.9,1.2 0.9,0 1.7,-0.3 2.5,-0.7 0.7,-0.5 1.3,-1.1 1.8,-1.9 0,0.3 0,0.7 0.1,1 0,0.3 0.1,0.8 0.2,1.3 z m -7.9,-2 c -0.5,-0.6 -0.7,-1.3 -0.6,-2 0,-0.9 0.3,-1.8 1,-2.4 0.8,-0.7 1.8,-1 2.8,-1 h 2.7 v 3.3 c -0.3,0.8 -0.8,1.6 -1.5,2.1 -0.7,0.5 -1.6,0.8 -2.5,0.8 -0.8,0 -1.5,-0.3 -1.9,-0.8 z m 12.7,-20.1 h -1.7 v 22.1 h 1.7 z m 10.9,0 h -1.7 v 22.1 h 1.7 z m 5.3,6.8 h -1.7 v 15.3 h 1.7 z m 0,-6.8 h -1.7 v 2.4 h 1.7 z m 6.2,22.1 v -13.9 h 2.9 v -1.5 H 321 v -2.2 c -0.1,-0.9 0.1,-1.7 0.6,-2.5 0.4,-0.6 1,-0.9 1.7,-0.9 0.2,0 0.4,0 0.6,0 0.2,0 0.4,0.1 0.6,0.1 l 0.2,-1.4 c -0.3,-0.1 -0.5,-0.1 -0.8,-0.2 -0.3,0 -0.5,-0.1 -0.8,-0.1 -1.1,-0.1 -2.1,0.4 -2.8,1.3 -0.7,1 -1.1,2.3 -1,3.6 v 2.2 h -2.1 v 1.5 h 2.1 v 13.9 z m 12.2,-0.3 c 0.7,-0.3 1.3,-0.8 1.8,-1.4 l -0.7,-1.2 c -0.4,0.5 -1,1 -1.6,1.2 -0.7,0.3 -1.4,0.5 -2.2,0.5 -1.1,0 -2.2,-0.5 -2.9,-1.5 -0.7,-1.1 -1.1,-2.4 -1.1,-3.7 v -1.3 h 8.8 v -1.7 c 0.1,-1.6 -0.4,-3.3 -1.3,-4.6 -0.9,-1.1 -2.3,-1.8 -3.7,-1.7 -1.5,0 -2.9,0.7 -3.8,1.9 -1.1,1.4 -1.6,3.1 -1.6,4.8 v 2.5 c -0.1,1.7 0.5,3.4 1.6,4.7 1,1.2 2.5,1.9 4,1.9 0.9,0.2 1.8,0 2.7,-0.4 z m -0.4,-12.6 c 0.6,0.9 0.9,2 0.9,3.1 v 0.6 h -7.1 c 0,-1.3 0.4,-2.5 1.1,-3.6 0.6,-0.9 1.6,-1.5 2.6,-1.5 1,0.2 2,0.6 2.5,1.4 z"
   id="path100" />
<path
   class="st0"
   d="m 173.5,31.35 v -10.1 h -14.8 v 10.1 z m -0.3,4.2 h -14.3 v 41.9 h 14.3 z m 48.5,0 h -14 v 41.9 H 222 v -29.9 h 5.3 4.8 v -12 h -1.3 z m 16.5,2.7 c -1.9,1.8 -2.8,4.4 -2.8,7.7 v 21.1 c 0,3.3 0.9,5.9 2.8,7.7 1.9,1.8 4.9,2.7 9.2,2.7 H 258 c 4.2,0 7.3,-0.9 9.2,-2.7 1.9,-1.8 2.8,-4.4 2.8,-7.7 v -21.1 c 0,-3.4 -0.9,-5.9 -2.8,-7.7 -1.9,-1.8 -4.9,-2.7 -9.2,-2.7 h -10.7 c -4.2,0 -7.3,0.9 -9.1,2.7 z m 15.6,29.3 h -2.3 c -1.4,0 -2.1,-0.6 -2.1,-1.9 v -18.4 c 0,-1.2 0.7,-1.9 2.1,-1.9 h 2.3 c 1.4,0 2.1,0.6 2.1,1.9 v 18.5 c 0,1.2 -0.7,1.9 -2.1,1.8 z"
   id="path102" />
<polygon
   class="st0"
   points="113.8,213.5 113.8,269.7 127.4,269.7 127.4,240.2 139.6,269.7 152.4,269.7 152.4,213.5 138.8,213.5 138.8,243.5 126.6,213.5 "
   id="polygon104"
   transform="translate(0,-192.25)" />
<path
   class="st0"
   d="m 361.7,99.55 h 13 l 18.1,-64 h -14.4 l -4.5,25.6 -5.7,-25.6 h -14.4 l 13.3,43.4"
   id="path106" />
<path
   class="st0"
   d="m 317,45.95 v 21.1 c 0,7 4.1,10.4 12.4,10.4 h 10.2 c 8.2,0 12.4,-3.5 12.4,-10.4 v -3.8 h -13.5 v 2.4 c 0,1.4 0,2 0,2 h -5.8 c -1.4,0 -2.1,-0.6 -2.1,-1.9 v -5.5 H 352 v -14.3 c 0,-6.9 -4.1,-10.4 -12.4,-10.4 h -10.3 c -8.2,0 -12.3,3.5 -12.3,10.4 z m 13.5,1.3 c 0,-1.2 0.7,-1.9 2.1,-1.9 h 3.7 c 1.4,0 2.1,0.6 2.1,1.9 v 5.3 h -7.9 z"
   id="path108" />
<path
   class="st0"
   d="m 201.4,35.65 h -5.3 v -14.2 h -14.3 v 14.2 h -4.6 v 10.5 h 4.6 v 31.4 h 19.5 v -10.5 h -5.2 v -20.9 h 5.3 z"
   id="path110" />
<polygon
   class="st0"
   points="313.2,269.7 304.2,248.5 313.2,227.8 298.4,227.8 290.5,246.9 290.5,213.5 276.2,213.5 276.2,269.7 290.5,269.7 290.5,250.2 298.3,269.7 "
   id="polygon112"
   transform="translate(0,-192.25)" />
<path
   class="st1"
   d="m 58.2,68.35 -23.1,13.3 c -1.6,0.9 -3.6,0.4 -4.5,-1.2 L 18.3,59.05 c -0.9,-1.6 -0.4,-3.6 1.2,-4.5 l 23.1,-13.3 z"
   id="path114" />
<path
   class="st1"
   d="M 46.2,43.65 57.9,63.85 81,50.45 69.3,30.25 Z m 11.6,-2.5 c -0.2,-0.4 -0.1,-0.9 0.3,-1.1 l 2.3,-1.4 c 0.4,-0.2 0.9,-0.1 1.1,0.3 l 1.9,3.3 c 0.2,0.4 0.1,0.9 -0.3,1.1 l -2.3,1.3 c -0.4,0.2 -0.8,0.1 -1.1,-0.3 0,0 0,0 0,0 z m 11.4,12.8 -2.3,1.3 c -0.4,0.2 -0.9,0.1 -1.1,-0.3 l -1.9,-3.3 c -0.2,-0.4 -0.1,-0.8 0.3,-1.1 0,0 0,0 0,0 l 2.3,-1.3 c 0.4,-0.2 0.8,-0.1 1.1,0.3 0,0 0,0 0,0 l 1.9,3.3 c 0.2,0.5 0.1,1 -0.3,1.1 z"
   id="path116" />
<path
   class="st1"
   d="m 49.6,112.45 c -1.2,0 -2.5,-0.2 -3.6,-0.7 C 15.6,99.65 3,71.25 0.7,65.65 0.2,64.45 0,63.15 0,61.85 v -35 c 0,-4 2.3,-7.6 6,-9.2 L 45.8,0.75 c 2.4,-1 5.1,-1 7.5,0 l 39.8,16.8 c 3.7,1.6 6,5.2 6,9.2 v 35 c 0,1.3 -0.3,2.6 -0.7,3.8 -2.2,5.6 -14.9,34 -45.3,46.2 -1.1,0.5 -2.4,0.7 -3.5,0.7 z m 0,-103.6 c -0.1,0 -0.2,0 -0.3,0.1 L 9.5,25.75 c -0.4,0.2 -0.7,0.6 -0.6,1.1 v 35 c 0,0.2 0,0.3 0.1,0.5 2,5 13.3,30.4 40.4,41.3 0.2,0.1 0.4,0.1 0.6,0 27,-10.9 38.3,-36.3 40.2,-41.3 0.1,-0.2 0.1,-0.3 0.1,-0.5 v -35 c 0,-0.5 -0.2,-0.9 -0.6,-1.1 L 49.9,8.95 c -0.1,0 -0.2,-0.1 -0.3,-0.1 z"
   id="path118" />
<path
   class="st1"
   d="m 415.2,99.65 h 10.9 l -15.6,-55.5 h -11.3 l -15.6,55.5 h 10.9 l 3,-11.8 h 14.6 z m -10.4,-40.2 h 0.2 l 5,19.6 h -10.2 z m 57.3,17.6 c 0,-5.8 -1.2,-10.5 -3.6,-14.1 -2.2,-3.5 -6,-5.5 -10.1,-5.4 -1.7,0 -3.3,0.4 -4.7,1.3 -1.4,0.9 -2.6,2.1 -3.5,3.6 l -0.4,-4.1 h -10 v 57.1 h 10.8 v -19.1 c 0.9,1.3 2.1,2.3 3.4,3 1.4,0.7 2.9,1 4.5,1 4,0.2 7.7,-1.7 10,-5 2.4,-3.3 3.6,-7.7 3.6,-13.2 z m -10.8,5.1 c 0.1,2.4 -0.3,4.8 -1.3,7.1 -0.8,1.7 -2.5,2.7 -4.3,2.6 -1,0 -2.1,-0.2 -3,-0.7 -0.8,-0.5 -1.5,-1.2 -2,-2.1 v -19.5 c 0.4,-1 1.1,-1.8 2,-2.4 0.9,-0.6 1.9,-0.9 3,-0.9 1.9,0 3.7,1.2 4.3,3 1,2.5 1.5,5.2 1.4,7.8 z m 48.7,-5.1 c 0,-5.8 -1.2,-10.5 -3.6,-14.1 -2.2,-3.5 -6,-5.5 -10.1,-5.4 -1.7,0 -3.3,0.4 -4.7,1.3 -1.4,0.9 -2.6,2.1 -3.5,3.6 l -0.4,-4.1 h -10 v 57.1 h 10.8 v -19.1 c 0.9,1.3 2.1,2.3 3.4,3 1.4,0.7 2.9,1 4.5,1 4,0.2 7.7,-1.7 10,-5 2.4,-3.3 3.6,-7.7 3.6,-13.2 z m -10.8,5.1 c 0.1,2.4 -0.3,4.8 -1.3,7.1 -0.8,1.7 -2.5,2.7 -4.3,2.6 -1,0 -2.1,-0.2 -3,-0.7 -0.8,-0.5 -1.5,-1.2 -2,-2.1 v -19.5 c 0.4,-1 1.1,-1.8 2,-2.4 0.9,-0.6 1.9,-0.9 3,-0.9 1.9,0 3.7,1.2 4.3,3 1,2.5 1.5,5.2 1.4,7.8 z"
   id="path120" />
</svg>
