<?xml version="1.0" encoding="UTF-8" standalone="no"?>
<svg
   xmlns:dc="http://purl.org/dc/elements/1.1/"
   xmlns:cc="http://creativecommons.org/ns#"
   xmlns:rdf="http://www.w3.org/1999/02/22-rdf-syntax-ns#"
   xmlns:svg="http://www.w3.org/2000/svg"
   xmlns="http://www.w3.org/2000/svg"
   xmlns:sodipodi="http://sodipodi.sourceforge.net/DTD/sodipodi-0.dtd"
   xmlns:inkscape="http://www.inkscape.org/namespaces/inkscape"
   height="48"
   width="48"
   version="1.1"
   id="svg3923"
   sodipodi:docname="help_darkgrey_material.svg"
   inkscape:version="0.92.5 (2060ec1f9f, 2020-04-08)">
  <metadata
     id="metadata3929">
    <rdf:RDF>
      <cc:Work
         rdf:about="">
        <dc:format>image/svg+xml</dc:format>
        <dc:type
           rdf:resource="http://purl.org/dc/dcmitype/StillImage" />
        <dc:title />
      </cc:Work>
    </rdf:RDF>
  </metadata>
  <defs
     id="defs3927" />
  <sodipodi:namedview
     pagecolor="#ffffff"
     bordercolor="#666666"
     borderopacity="1"
     objecttolerance="10"
     gridtolerance="10"
     guidetolerance="10"
     inkscape:pageopacity="0"
     inkscape:pageshadow="2"
     inkscape:window-width="1294"
     inkscape:window-height="704"
     id="namedview3925"
     showgrid="false"
     inkscape:zoom="9.8333333"
     inkscape:cx="32.02623"
     inkscape:cy="17.763655"
     inkscape:window-x="72"
     inkscape:window-y="27"
     inkscape:window-maximized="1"
     inkscape:current-layer="svg3923" />
  <path
     d="M24.2 35.65q.8 0 1.375-.575t.575-1.425q0-.85-.575-1.425-.575-.575-1.425-.575-.8 0-1.375.575T22.2 33.65q0 .85.575 1.425.575.575 1.425.575Zm-1.85-7.3h3.1q0-1.3.325-2.375t1.975-2.425q1.55-1.25 2.2-2.525.65-1.275.65-2.775 0-2.7-1.7-4.3-1.7-1.6-4.6-1.6-2.45 0-4.375 1.25Q18 14.85 17.15 17.05l2.8 1.1q.6-1.4 1.675-2.175Q22.7 15.2 24.15 15.2q1.55 0 2.55.875 1 .875 1 2.275 0 1.05-.625 2.025-.625.975-1.825 1.925-1.45 1.3-2.175 2.6-.725 1.3-.725 3.45ZM24 44.3q-4.15 0-7.875-1.6-3.725-1.6-6.475-4.35Q6.9 35.6 5.3 31.9 3.7 28.2 3.7 24t1.6-7.925q1.6-3.725 4.35-6.45Q12.4 6.9 16.1 5.3T24 3.7q4.2 0 7.925 1.6 3.725 1.6 6.45 4.325T42.7 16.05q1.6 3.7 1.6 7.95 0 4.2-1.6 7.9t-4.325 6.45Q35.65 41.1 31.95 42.7q-3.7 1.6-7.95 1.6Z"
     id="path3921"
     style="fill:#333333" />
  <path
     style="fill:#1a1a1a;stroke-width:0.10169492"
     d="M 22.392786,44.185924 C 17.184187,43.795376 11.933543,41.095987 8.5588824,37.073827 4.1981688,31.876421 2.7139553,25.126561 4.4883017,18.561769 5.7333319,13.95536 8.7788095,9.7978367 12.882392,7.1026056 17.81832,3.8606899 23.691157,2.9335782 29.443179,4.4882473 c 5.49413,1.4849653 10.233907,5.4456531 12.764951,10.6667417 1.251661,2.581954 1.771838,4.550594 1.982961,7.504638 0.574492,8.03836 -3.891653,15.841671 -11.144076,19.471085 -3.223804,1.613326 -6.953167,2.332724 -10.654229,2.055212 z m 2.839275,-8.802577 c 0.59285,-0.384411 0.863593,-0.837185 0.928475,-1.552722 0.09832,-1.084267 -0.500751,-1.916481 -1.553964,-2.158727 -1.521155,-0.349877 -2.788704,1.048821 -2.342244,2.584589 0.261535,0.899646 0.946281,1.388382 1.94663,1.389401 0.490147,5.09e-4 0.697759,-0.05288 1.021103,-0.262541 z m 0.294342,-7.738541 c 0.167911,-1.791872 0.528525,-2.478529 1.997785,-3.804051 1.290528,-1.164276 1.799595,-1.72041 2.254042,-2.462441 0.590582,-0.964318 0.826397,-1.851883 0.829375,-3.12163 0.0043,-1.844742 -0.453303,-3.068642 -1.563412,-4.181235 -1.203631,-1.206326 -2.631351,-1.726832 -4.736607,-1.726832 -3.064064,0 -5.556091,1.423988 -6.819976,3.897054 -0.192234,0.376146 -0.349516,0.724027 -0.349516,0.773071 0,0.07496 2.584607,1.136247 2.767154,1.136247 0.03349,0 0.20731,-0.259444 0.386269,-0.576542 0.948821,-1.681219 2.707471,-2.561195 4.535105,-2.269228 0.857233,0.136943 1.516274,0.472627 2.037001,1.037549 0.588746,0.638714 0.779613,1.205869 0.734468,2.182444 -0.05882,1.272431 -0.335701,1.727907 -2.121638,3.490184 -1.626881,1.605327 -2.189136,2.293545 -2.591133,3.17162 -0.303738,0.663453 -0.560785,1.894075 -0.560785,2.684784 v 0.550376 h 1.564323 1.564323 z"
     id="path39"
     inkscape:connector-curvature="0" />
</svg>
